<svg xmlns="http://www.w3.org/2000/svg" width="2161" height="2160" fill="none"><g clip-path="url(#a)"><path fill="url(#b)" fill-rule="evenodd" d="m1335.14 1459.46.01.01-.02-.02.01.01Zm10.91 19.04h.01l.01-.01m46.59 80.76h.01Z" clip-rule="evenodd"/><path fill="url(#c)" d="m2530.39-444.82 1.34-1.858-35.59-25.629-.62.859c-32.78 45.532-62.96 87.462-126.71 124.277-64.24 37.103-118.38 43.442-173.78 48.811l-6.32.608c-53.72 5.16-110.21 10.586-172.5 46.558-75.56 43.64-112.15 93.633-146.1 140.403l-.61.844c-33.27 45.836-63.92 88.066-127.7 124.903-64.24 37.103-118.38 43.441-173.79 48.81-2.1.204-4.2.406-6.31.608-53.72 5.16-110.22 10.587-172.5 46.559-75.59 43.655-111.71 93.4-145.21 139.93l-.62.86v.001c-32.78 45.531-62.96 87.46-126.71 124.275-64.09 37.014-118.125 43.412-173.387 48.772-2.226.216-4.457.43-6.693.645-53.181 5.107-109.116 10.478-170.67 45.498l-.004-.006-.928.538-.029.017-.859.494.003.004c-74.499 43.491-110.77 93.198-144.496 139.665l-.369.508-.001.001c-33.264 45.833-63.919 88.069-127.703 124.907-64.243 37.102-118.382 43.441-173.787 48.81-2.1.204-4.204.406-6.312.608-53.721 5.159-110.22 10.586-172.505 46.558-75.588 43.655-111.71 93.4-145.208 139.93l-.62.86v.002c-32.777 45.53-62.962 87.46-126.706 124.27-64.243 37.11-118.382 43.45-173.787 48.81-1.913.19-3.83.37-5.75.56l-.562.05 5.996 43.49 4.545-.44c56.6-5.48 118.689-12.44 191.489-54.48 71.922-41.54 106.727-89.9 139.647-135.64l1.337-1.853c32.84-45.617 64.464-88.831 131.55-127.576 53.923-31.143 102.055-35.79 156.57-41.053l4.545-.439c56.6-5.485 118.689-12.44 191.489-54.484 71.881-41.515 107.137-90.097 140.5-136.071l1.132-1.561c33.261-45.826 65.188-89.229 131.769-127.933 53.572-30.692 101.455-35.316 155.681-40.552 1.651-.16 3.307-.319 4.969-.481 56.494-5.48 118.464-12.5 191.084-54.445 71.92-41.538 106.73-89.896 139.65-135.632l1.34-1.858c32.84-45.617 64.46-88.832 131.55-127.576 53.92-31.143 102.05-35.79 156.56-41.053h.01l4.54-.439c56.6-5.485 118.69-12.44 191.49-54.485 71.89-41.516 107.15-90.106 140.51-136.078l1.36-1.885c33.33-45.918 65.43-89.427 132.54-128.187 53.92-31.143 102.06-35.79 156.57-41.053l4.55-.439c56.6-5.485 118.69-12.44 191.49-54.485 71.92-41.537 106.72-89.893 139.64-135.63v-.002Z"/><path fill="url(#d)" d="m2577-364.069 1.34-1.859-35.59-25.629-.62.861c-32.78 45.531-62.97 87.461-126.71 124.276-64.24 37.103-118.38 43.441-173.79 48.81-2.1.203-4.2.406-6.31.608-53.72 5.159-110.22 10.585-172.5 46.557-75.56 43.641-112.15 93.634-146.1 140.404l-.61.844c-33.27 45.836-63.92 88.066-127.7 124.903-64.25 37.103-118.39 43.442-173.79 48.811l-2.68.258-3.64.35c-53.72 5.16-110.21 10.586-172.5 46.557-75.59 43.655-111.71 93.401-145.21 139.931l-.62.861c-32.77 45.531-62.96 87.461-126.7 124.275-64.09 37.014-118.13 43.412-173.391 48.772-2.225.216-4.456.43-6.691.645-53.179 5.106-109.112 10.477-170.663 45.493l-.004-.006-.967.56-.051.029-.807.465.002.004c-74.498 43.491-110.769 93.198-144.495 139.665l-.368.507c-33.265 45.834-63.92 88.071-127.705 124.909-64.243 37.103-118.382 43.442-173.787 48.811l-5.705.549-.607.058c-53.721 5.16-110.22 10.586-172.505 46.559-75.588 43.655-111.71 93.401-145.208 139.931l-.62.86c-32.777 45.53-62.962 87.46-126.706 124.27-64.243 37.11-118.382 43.45-173.787 48.82-1.904.18-3.811.36-5.722.55l-.59.05 5.996 43.49 4.545-.44c56.6-5.48 118.689-12.44 191.488-54.48 71.922-41.54 106.728-89.9 139.648-135.63l1.337-1.86c32.84-45.62 64.464-88.834 131.55-127.579 53.923-31.142 102.054-35.789 156.568-41.052h.002l4.545-.439c56.6-5.485 118.689-12.44 191.488-54.485 71.883-41.515 107.138-90.098 140.502-136.073l1.131-1.56c33.26-45.825 65.187-89.228 131.769-127.932 53.571-30.692 101.455-35.315 155.681-40.552l2.653-.256 2.316-.224c56.498-5.48 118.458-12.501 191.088-54.445 71.92-41.538 106.73-89.896 139.65-135.633v-.001l1.33-1.858c32.84-45.617 64.47-88.831 131.55-127.575 53.92-31.143 102.06-35.79 156.57-41.053l4.55-.439c56.6-5.485 118.69-12.439 191.49-54.484 71.88-41.516 107.14-90.106 140.5-136.078l1.37-1.886c33.33-45.919 65.42-89.427 132.54-128.187 53.92-31.143 102.05-35.79 156.57-41.053 1.51-.145 3.02-.291 4.54-.439 56.6-5.485 118.69-12.439 191.49-54.484 71.92-41.538 106.73-89.895 139.65-135.632Z"/><path fill="url(#e)" d="M2292.47-93.203c56.6-5.484 118.69-12.439 191.49-54.484l105.39-163.12-.62.859c-32.77 45.532-62.96 87.462-126.7 124.277-64.25 37.103-118.39 43.442-173.79 48.811-2.1.204-4.21.406-6.31.608-53.72 5.16-110.22 10.586-172.51 46.558-75.56 43.64-112.15 93.633-146.09 140.403l-.62.845c-33.27 45.835-63.92 88.065-127.7 124.902-64.24 37.103-118.38 43.442-173.79 48.811l-3.95.381-2.36.227c-53.72 5.159-110.22 10.586-172.5 46.558-75.59 43.655-111.71 93.4-145.21 139.93l-.62.86v.001c-32.78 45.531-62.96 87.461-126.71 124.275-64.09 37.014-118.12 43.412-173.39 48.772-2.19.213-4.38.424-6.58.635l-.11.01v.001c-53.179 5.106-109.108 10.477-170.655 45.489l-.003-.006-.943.546-.047.027-.029.017-.036.021-.793.457.002.003C782.8 676.96 746.531 726.663 712.808 773.126l-.367.506c-33.266 45.835-63.92 88.071-127.705 124.91-64.243 37.103-118.382 43.441-173.788 48.811l-6.313.608h-.004c-53.719 5.16-110.216 10.587-172.499 46.558-75.588 43.651-111.711 93.401-145.208 139.931l-.62.86c-32.777 45.53-62.962 87.46-126.706 124.28-64.243 37.1-118.382 43.44-173.788 48.81l-2.774.26c-1.178.12-2.357.23-3.538.34l5.997 43.49 4.545-.44c56.599-5.48 118.689-12.44 191.488-54.48 71.922-41.54 106.728-89.9 139.647-135.63l1.338-1.86c32.84-45.62 64.463-88.83 131.549-127.58 53.923-31.14 102.055-35.787 156.568-41.051h.001l4.547-.439c56.599-5.485 118.689-12.44 191.488-54.485 71.882-41.515 107.138-90.097 140.501-136.072l1.132-1.56c33.26-45.826 65.186-89.228 131.768-127.933 53.572-30.691 101.455-35.315 155.683-40.552 1.65-.159 3.31-.319 4.97-.481 56.49-5.48 118.46-12.5 191.08-54.445 71.93-41.537 106.73-89.895 139.65-135.631v-.001l1.34-1.858c32.84-45.617 64.46-88.831 131.55-127.576 53.92-31.143 102.05-35.789 156.57-41.053l4.54-.439c56.6-5.485 118.69-12.44 191.49-54.484 71.89-41.517 107.15-90.107 140.51-136.08l1.37-1.884c33.32-45.918 65.42-89.427 132.53-128.187 53.93-31.143 102.06-35.79 156.57-41.052l.6-.058 3.95-.382Z"/><path fill="url(#f)" d="M2339.07-12.453c56.6-5.485 118.69-12.44 191.49-54.484l-21.93-37.984c-64.24 37.103-118.38 43.442-173.79 48.811l-2.07.201c-1.41.136-2.82.272-4.24.407-53.72 5.16-110.22 10.587-172.5 46.558-75.56 43.64-112.15 93.633-146.1 140.403l-.61.845c-33.27 45.835-63.92 88.065-127.7 124.902-64.25 37.103-118.38 43.442-173.79 48.811l-6.31.608h-.01c-53.72 5.16-110.21 10.587-172.5 46.558-75.58 43.655-111.71 93.401-145.2 139.93l-.62.86v.001c-32.78 45.531-62.97 87.461-126.71 124.276-64.09 37.014-118.13 43.412-173.39 48.772l-5.94.572-.75.073h-.01c-53.18 5.107-109.107 10.478-170.658 45.494l-.003-.006-.97.562-.049.029-.028.015-.007.004-.774.446.002.004c-74.494 43.491-110.764 93.196-144.489 139.662l-.367.506c-33.266 45.834-63.92 88.07-127.705 124.909-64.243 37.098-118.383 43.438-173.788 48.808-2.1.21-4.203.41-6.312.61-53.72 5.16-110.219 10.59-172.504 46.56-75.588 43.65-111.711 93.4-145.209 139.93l-.619.86c-32.777 45.53-62.962 87.46-126.707 124.27-64.242 37.11-118.382 43.45-173.787 48.82-1.922.18-3.847.37-5.776.55l-.536.05-144.498 81.13c51.486-28.08 98.034-32.57 150.492-37.64h.003l4.545-.44c56.599-5.48 118.689-12.44 191.488-54.48 71.922-41.54 106.728-89.9 139.647-135.63l1.338-1.86c32.84-45.62 64.463-88.83 131.549-127.58 53.923-31.14 102.055-35.79 156.569-41.05h.002l4.545-.44c56.599-5.48 118.689-12.44 191.488-54.48 71.882-41.519 107.138-90.102 140.501-136.077l1.131-1.56c33.26-45.825 65.187-89.228 131.769-127.932 53.572-30.692 101.457-35.316 155.677-40.552 1.65-.159 3.31-.319 4.97-.481 56.5-5.48 118.46-12.5 191.09-54.445 71.92-41.538 106.73-89.896 139.65-135.633v-.001l1.33-1.857c32.84-45.616 64.47-88.83 131.55-127.575 53.93-31.143 102.06-35.79 156.57-41.054l4.55-.439c56.6-5.485 118.69-12.44 191.49-54.485 71.88-41.516 107.14-90.105 140.5-136.077l1.37-1.886c33.33-45.918 65.43-89.426 132.54-128.186 53.92-31.143 102.05-35.79 156.57-41.053l4.54-.44Z"/><path fill="url(#g)" d="M2385.68 68.297c56.6-5.485 118.69-12.44 191.49-54.484l-21.93-37.983c-64.24 37.103-118.38 43.44-173.79 48.81-2.1.204-4.2.406-6.31.608h-.01c-53.71 5.16-110.21 10.587-172.5 46.558-75.56 43.64-112.15 93.633-146.09 140.403l-.62.844c-33.26 45.837-63.91 88.067-127.7 124.905-64.24 37.102-118.38 43.441-173.78 48.81-2.1.203-4.21.405-6.32.607-53.72 5.16-110.22 10.586-172.5 46.558-75.59 43.655-111.71 93.401-145.21 139.931l-.62.86c-32.78 45.531-62.96 87.461-126.7 124.276-64.09 37.014-118.13 43.412-173.39 48.772-2.23.216-4.46.43-6.7.644-53.18 5.107-109.11 10.478-170.662 45.495l-.003-.006-.97.562-.049.029-.028.015-.007.004-.774.446.002.004c-74.494 43.491-110.764 93.196-144.489 139.662l-.369.508c-33.264 45.833-63.919 88.065-127.704 124.905-64.242 37.11-118.382 43.44-173.787 48.81-2.1.21-4.205.41-6.314.61h-.004c-53.719 5.16-110.216 10.59-172.499 46.56-75.588 43.65-111.71 93.4-145.208 139.93l-.62.86c-32.777 45.53-62.962 87.46-126.706 124.28-64.243 37.1-118.382 43.44-173.787 48.81-1.903.18-3.81.36-5.72.55l-.592.05c-53.721 5.16-110.219 10.59-172.504 46.56l21.93 37.99c53.923-31.15 102.054-35.79 156.568-41.06h.003l4.544-.44c56.6-5.48 118.69-12.44 191.489-54.48 71.922-41.54 106.728-89.9 139.647-135.63l1.337-1.86c32.841-45.62 64.464-88.83 131.55-127.58 53.922-31.14 102.053-35.79 156.565-41.05h.003l4.547-.44c56.6-5.48 118.689-12.44 191.489-54.48 71.882-41.52 107.137-90.1 140.501-136.078l1.131-1.558c33.26-45.826 65.187-89.229 131.768-127.934 53.572-30.691 101.452-35.315 155.682-40.551l.76-.074 4.21-.406c56.5-5.48 118.46-12.501 191.09-54.446 71.92-41.539 106.72-89.897 139.64-135.634l1.34-1.856c32.84-45.617 64.46-88.832 131.55-127.576 53.92-31.143 102.05-35.79 156.57-41.053l4.55-.44c56.59-5.484 118.68-12.439 191.48-54.484 71.89-41.516 107.15-90.105 140.51-136.077l1.37-1.886c33.33-45.919 65.42-89.427 132.53-128.187 53.93-31.143 102.06-35.79 156.58-41.054l4.54-.44Z"/><path fill="url(#h)" d="m2427.74 149.487 4.55-.439-4.23-43.657-6.32.608c-53.72 5.159-110.22 10.586-172.5 46.558-75.56 43.64-112.15 93.633-146.1 140.403l-.61.845c-33.27 45.835-63.92 88.065-127.7 124.902-64.24 37.103-118.38 43.442-173.79 48.811l-6.31.607c-53.72 5.16-110.22 10.587-172.51 46.559-75.58 43.655-111.71 93.4-145.2 139.93l-.62.858v.003c-32.78 45.53-62.97 87.46-126.71 124.275-64.09 37.014-118.13 43.412-173.39 48.772l-3.52.34-3.17.305c-53.18 5.107-109.12 10.478-170.666 45.494l-.003-.005-.97.562-.049.028-.028.016-.007.004-.774.445.002.005c-74.494 43.491-110.765 93.196-144.489 139.664l-.368.5c-33.265 45.84-63.919 88.07-127.705 124.91-64.243 37.11-118.382 43.44-173.787 48.81l-5.305.51-1.009.1h-.002c-53.719 5.16-110.217 10.59-172.501 46.56-75.588 43.66-111.711 93.4-145.208 139.93l-.619.86h-.002c-32.777 45.53-62.962 87.46-126.705 124.28-64.243 37.1-118.382 43.44-173.787 48.81l-6.314.6h-.002c-53.72 5.16-110.217 10.59-172.501 46.56l21.931 37.99c53.922-31.15 102.053-35.79 156.566-41.06h.003l4.546-.44c56.6-5.48 118.69-12.44 191.489-54.48 71.921-41.54 106.726-89.9 139.645-135.63h.002l1.337-1.86c32.841-45.62 64.464-88.83 131.55-127.58 53.922-31.14 102.054-35.79 156.567-41.05h.002l4.546-.44c56.6-5.48 118.689-12.44 191.489-54.48 71.88-41.52 107.136-90.1 140.498-136.07l.002-.01 1.132-1.56c33.26-45.822 65.187-89.225 131.764-127.929 53.58-30.692 101.46-35.316 155.69-40.552l.83-.081 4.14-.4c56.49-5.48 118.46-12.5 191.08-54.445 71.92-41.538 106.73-89.895 139.65-135.632l1.34-1.858c32.84-45.617 64.46-88.831 131.54-127.576 53.93-31.143 102.06-35.79 156.57-41.053h.01l4.54-.439c56.6-5.485 118.69-12.44 191.49-54.485 71.88-41.516 107.14-90.107 140.51-136.079l1.36-1.884c33.33-45.918 65.43-89.427 132.54-128.187 53.92-31.143 102.06-35.79 156.57-41.053Z"/><path fill="url(#i)" d="m2474.35 230.237 4.54-.44-4.23-43.656-2.87.277-3.44.33c-53.72 5.16-110.22 10.586-172.5 46.558-75.57 43.64-112.15 93.634-146.1 140.404l-.61.844c-33.27 45.836-63.92 88.066-127.7 124.903-64.25 37.103-118.39 43.441-173.79 48.811l-6.32.608c-53.72 5.16-110.22 10.587-172.5 46.558-75.59 43.655-111.71 93.401-145.21 139.93l-.62.859c-32.77 45.531-62.96 87.461-126.7 124.277-64.09 37.014-118.13 43.412-173.39 48.772-2.23.216-4.46.43-6.7.645-53.18 5.107-109.1 10.478-170.65 45.489v-.005l-1.02.589-.04.021-.01.005-.78.449.01.003c-74.495 43.49-110.765 93.192-144.489 139.662l-.368.51c-33.265 45.83-63.919 88.06-127.704 124.9-64.243 37.11-118.382 43.44-173.787 48.81-2.1.21-4.204.41-6.313.61-53.72 5.16-110.219 10.59-172.504 46.56-75.588 43.65-111.711 93.4-145.208 139.93l-.62.86c-32.777 45.53-62.962 87.46-126.706 124.28-64.243 37.1-118.382 43.44-173.787 48.81l-6.312.6c-53.721 5.16-110.22 10.59-172.505 46.56l-111.976 168.06 1.368-1.89c33.33-45.92 65.426-89.42 132.539-128.18 53.923-31.15 102.055-35.79 156.57-41.06l4.545-.44c56.6-5.48 118.689-12.44 191.488-54.48 71.923-41.54 106.728-89.9 139.648-135.63l1.337-1.86c32.84-45.62 64.464-88.83 131.549-127.58 53.924-31.14 102.056-35.79 156.571-41.05l4.545-.44c56.6-5.48 118.689-12.44 191.488-54.48 71.882-41.52 107.138-90.1 140.501-136.08l1.132-1.56c33.26-45.82 65.187-89.22 131.768-127.929 53.57-30.692 101.46-35.316 155.68-40.552l1.92-.185 3.05-.296c56.5-5.48 118.46-12.501 191.09-54.445 71.92-41.539 106.73-89.896 139.64-135.633l1.34-1.857c32.84-45.617 64.46-88.831 131.55-127.576 53.92-31.142 102.05-35.789 156.57-41.052v-.001l4.55-.439c56.6-5.485 118.69-12.44 191.48-54.485 71.89-41.516 107.15-90.107 140.51-136.079l1.37-1.884c33.33-45.919 65.42-89.427 132.54-128.187 53.92-31.143 102.05-35.79 156.56-41.053h.01Z"/><path fill="url(#j)" d="m2520.95 310.987 4.55-.439-4.23-43.657-6.32.608c-53.72 5.16-110.22 10.587-172.5 46.558-75.56 43.64-112.15 93.633-146.1 140.403l-.61.844c-33.27 45.836-63.92 88.066-127.7 124.903-64.24 37.103-118.38 43.442-173.79 48.811-2.1.203-4.2.406-6.31.608-53.72 5.159-110.22 10.586-172.5 46.558-75.59 43.655-111.71 93.4-145.21 139.93l-.62.858c-32.78 45.532-62.96 87.463-126.71 124.278-64.09 37.014-118.13 43.412-173.39 48.772-2.22.216-4.45.43-6.69.645v.001c-53.18 5.106-109.11 10.482-170.66 45.492h-.01l-.96.55-.06.04-.02.01-.78.45c-74.5 43.49-110.767 93.2-144.492 139.67l-.368.5c-33.266 45.84-63.92 88.07-127.705 124.91-64.243 37.11-118.382 43.44-173.788 48.81-2.1.21-4.204.41-6.312.61h-.003c-53.72 5.16-110.218 10.59-172.502 46.56-75.588 43.65-111.711 93.4-145.208 139.93l-.62.86c-32.777 45.53-62.962 87.46-126.705 124.28-64.243 37.1-118.382 43.44-173.788 48.81l-1.404.13c-1.633.16-3.269.32-4.907.47-53.721 5.16-110.22 10.59-172.505 46.56-75.562 43.64-112.15 93.64-146.097 140.41l-.613.84 34.734 26.81 1.368-1.89c33.329-45.92 65.426-89.42 132.538-128.18 53.924-31.15 102.056-35.79 156.571-41.06l4.545-.44c56.6-5.48 118.689-12.44 191.488-54.48 71.922-41.54 106.727-89.9 139.646-135.63h.001l1.337-1.86c32.841-45.62 64.464-88.83 131.55-127.58 53.923-31.14 102.055-35.79 156.57-41.05l4.545-.44c56.6-5.48 118.69-12.44 191.489-54.48 71.881-41.52 107.136-90.1 140.499-136.07l.001-.01 1.133-1.56c33.262-45.82 65.182-89.22 131.772-127.93 53.57-30.69 101.45-35.31 155.68-40.55 1.65-.16 3.3-.32 4.97-.48 56.49-5.48 118.46-12.5 191.08-54.447 71.92-41.537 106.73-89.895 139.65-135.631l1.34-1.859c32.84-45.617 64.46-88.831 131.55-127.576 53.92-31.143 102.05-35.79 156.57-41.053l4.54-.439c56.6-5.485 118.69-12.44 191.49-54.484 71.89-41.516 107.14-90.106 140.5-136.078l1.37-1.886c33.33-45.918 65.43-89.427 132.54-128.187 53.92-31.142 102.05-35.789 156.57-41.053Z"/><path fill="url(#k)" d="m2567.87 347.641-6.31.608c-53.72 5.159-110.22 10.586-172.5 46.558-75.57 43.64-112.15 93.633-146.1 140.403l-.61.845-.01.002c-33.26 45.835-63.91 88.064-127.69 124.901-64.25 37.103-118.39 43.441-173.79 48.81l-2.92.282-3.4.326v.001c-53.72 5.159-110.22 10.586-172.5 46.556-75.59 43.656-111.71 93.401-145.21 139.931l-.62.862c-32.77 45.53-62.96 87.46-126.7 124.274-64.09 37.01-118.13 43.41-173.39 48.77-2.23.22-4.46.43-6.69.65h-.01c-53.18 5.1-109.11 10.48-170.66 45.49l-.97.55-.05.04-.03.01-.77.45c-74.5 43.49-110.77 93.2-144.497 139.67l-.368.51c-33.265 45.83-63.92 88.06-127.705 124.9-64.242 37.11-118.382 43.45-173.787 48.81-2.1.21-4.205.41-6.314.61-53.72 5.16-110.219 10.59-172.503 46.56-75.588 43.65-111.711 93.4-145.208 139.93l-.619.86c-32.778 45.53-62.962 87.46-126.706 124.28-64.243 37.1-118.383 43.44-173.788 48.81l-6.312.6c-53.72 5.16-110.22 10.59-172.505 46.56-75.562 43.64-112.15 93.64-146.097 140.41l-.613.84 34.735 26.81 1.368-1.89c33.329-45.92 65.425-89.42 132.537-128.18 53.923-31.15 102.055-35.79 156.568-41.06h.003l4.545-.44c56.6-5.48 118.69-12.44 191.489-54.48 71.923-41.54 106.728-89.9 139.647-135.63l1.337-1.86c32.84-45.62 64.464-88.83 131.55-127.58 53.922-31.14 102.052-35.79 156.565-41.05h.003l4.547-.44c56.6-5.48 118.69-12.44 191.489-54.48 71.882-41.52 107.138-90.1 140.499-136.08l1.13-1.56c33.26-45.82 65.19-89.22 131.77-127.93 53.57-30.69 101.46-35.31 155.68-40.55l4.97-.48c56.5-5.48 118.46-12.5 191.09-54.45 71.92-41.53 106.73-89.891 139.64-135.627l.01-.002 1.33-1.858c32.84-45.617 64.47-88.831 131.55-127.576 53.93-31.143 102.06-35.79 156.57-41.053l4.55-.439c56.6-5.484 118.69-12.439 191.49-54.484 71.88-41.514 107.14-90.103 140.5-136.073v-.004l1.37-1.887c33.33-45.918 65.43-89.427 132.54-128.187 53.92-31.143 102.05-35.789 156.57-41.053l4.54-.439-4.23-43.657Z"/><path fill="url(#l)" d="M2435.66 475.557c-75.56 43.64-112.15 93.633-146.09 140.403l-.62.844c-33.26 45.836-63.92 88.066-127.7 124.904-64.24 37.103-118.38 43.441-173.79 48.81-2.1.204-4.2.406-6.31.608-53.72 5.16-110.22 10.586-172.5 46.558-75.59 43.655-111.71 93.401-145.21 139.93l-.62.859v.001c-32.78 45.536-62.96 87.466-126.71 124.276-64.09 37.01-118.12 43.41-173.39 48.77-2.22.22-4.45.43-6.69.65-53.18 5.1-109.12 10.48-170.67 45.5v-.01l-.93.54-.03.01-.86.5c-74.49 43.49-110.77 93.2-144.49 139.67l-.37.51c-33.26 45.83-63.919 88.06-127.704 124.9-64.243 37.11-118.382 43.45-173.787 48.81l-4.955.48-1.359.13h-.002c-53.72 5.16-110.218 10.59-172.501 46.56-75.589 43.66-111.711 93.4-145.208 139.93l-.62.86c-32.777 45.53-62.962 87.46-126.706 124.28-64.243 37.1-118.382 43.44-173.787 48.81l-6.314.6-.004.01c-53.72 5.16-110.216 10.58-172.5 46.55-75.561 43.64-112.149 93.64-146.096 140.41l-.613.84c-33.268 45.84-63.919 88.07-127.701 124.9l21.931 37.99c71.884-41.52 107.143-90.11 140.503-136.08h.002l1.368-1.89c33.329-45.91 65.425-89.42 132.537-128.18 53.922-31.15 102.053-35.79 156.566-41.06h.003l4.547-.44c56.6-5.48 118.689-12.44 191.489-54.48 71.922-41.54 106.728-89.9 139.647-135.63l1.337-1.86c32.84-45.62 64.463-88.83 131.549-127.58 53.923-31.14 102.054-35.79 156.568-41.05h.001l4.547-.44c56.6-5.48 118.689-12.44 191.489-54.48 71.883-41.52 107.133-90.1 140.503-136.08l1.13-1.56c33.26-45.82 65.19-89.22 131.77-127.93 53.57-30.69 101.45-35.31 155.68-40.55l4.97-.48c56.5-5.48 118.46-12.5 191.08-54.45 71.93-41.53 106.73-89.89 139.65-135.63l1.34-1.86c32.84-45.613 64.46-88.828 131.55-127.573 53.92-31.142 102.05-35.789 156.57-41.052l4.54-.44c56.6-5.485 118.69-12.439 191.49-54.484 71.89-41.516 107.15-90.105 140.51-136.078l1.37-1.886c33.32-45.918 65.42-89.426 132.53-128.186l-21.93-37.984Z"/><path fill="url(#m)" d="M2482.27 556.307c-75.56 43.64-112.15 93.633-146.1 140.403l-.61.844c-33.27 45.836-63.92 88.066-127.7 124.904-64.25 37.102-118.38 43.441-173.79 48.811l-6.31.607h-.01c-53.72 5.16-110.21 10.587-172.5 46.559-75.58 43.655-111.71 93.405-145.2 139.925l-.62.86c-32.78 45.53-62.97 87.47-126.71 124.28-64.09 37.01-118.13 43.41-173.39 48.77-2.22.22-4.46.43-6.69.65-53.18 5.1-109.12 10.48-170.67 45.5l-.01-.01-.93.54-.02.01-.86.5c-74.5 43.49-110.77 93.2-144.5 139.67l-.36.51c-33.27 45.83-63.92 88.07-127.708 124.9-64.243 37.11-118.382 43.45-173.788 48.81-2.1.21-4.203.41-6.311.61-53.721 5.16-110.22 10.59-172.506 46.56-75.588 43.66-111.71 93.4-145.207 139.93l-.62.86c-32.777 45.53-62.962 87.46-126.706 124.28-64.243 37.1-118.382 43.44-173.788 48.81l-6.312.6c-53.72 5.16-110.22 10.59-172.504 46.56-75.562 43.64-112.15 93.64-146.097 140.41l-.614.84c-33.267 45.84-63.918 88.07-127.7 124.9l21.93 37.99c71.885-41.52 107.145-90.11 140.505-136.08l1.368-1.89c33.33-45.92 65.426-89.42 132.538-128.18 53.923-31.15 102.054-35.79 156.568-41.06h.003l4.545-.44c56.599-5.48 118.689-12.44 191.489-54.48 71.922-41.54 106.727-89.9 139.646-135.63l1.338-1.86c32.84-45.62 64.463-88.83 131.549-127.58 53.923-31.14 102.054-35.79 156.568-41.05h.003l4.545-.44c56.599-5.48 118.689-12.44 191.488-54.48 71.878-41.52 107.138-90.1 140.498-136.07l1.13-1.57c33.27-45.82 65.19-89.22 131.77-127.93 53.57-30.69 101.46-35.31 155.68-40.55l2.74-.26 2.23-.22c56.5-5.48 118.46-12.5 191.09-54.45 71.92-41.54 106.73-89.89 139.65-135.63l1.33-1.86c32.84-45.61 64.47-88.827 131.55-127.572 53.93-31.142 102.06-35.789 156.57-41.053l4.55-.44c56.6-5.485 118.69-12.44 191.49-54.484 71.88-41.516 107.14-90.105 140.5-136.078l1.37-1.886c33.33-45.918 65.43-89.426 132.54-128.187l-21.93-37.983Z"/><path fill="url(#n)" d="M2528.87 637.058c-75.56 43.64-112.15 93.632-146.09 140.402l-.62.846c-33.26 45.835-63.92 88.065-127.7 124.902-64.24 37.103-118.38 43.442-173.78 48.811-2.1.203-4.21.405-6.32.607-53.72 5.16-110.22 10.586-172.5 46.558-75.59 43.656-111.71 93.396-145.21 139.926l-.62.87c-32.78 45.53-62.96 87.46-126.7 124.27-64.09 37.02-118.13 43.41-173.39 48.77-2.23.22-4.46.43-6.69.65-53.19 5.1-109.12 10.48-170.68 45.5v-.01l-.93.54-.03.01-.86.5h.01c-74.5 43.49-110.77 93.2-144.5 139.67l-.37.51c-33.26 45.83-63.92 88.07-127.7 124.9-64.245 37.11-118.384 43.45-173.79 48.81-2.1.21-4.204.41-6.313.61-53.72 5.16-110.219 10.59-172.504 46.56-75.588 43.66-111.711 93.4-145.208 139.93l-.619.86h-.001c-32.777 45.53-62.962 87.46-126.705 124.28-64.243 37.1-118.382 43.44-173.788 48.81-2.1.2-4.205.4-6.313.61h-.004c-53.719 5.16-110.217 10.58-172.5 46.55-75.561 43.64-112.15 93.64-146.096 140.41l-.613.84c-33.268 45.84-63.919 88.07-127.701 124.9l21.93 37.99c71.885-41.52 107.144-90.11 140.505-136.08l1.368-1.89c33.329-45.92 65.425-89.42 132.538-128.18 53.923-31.15 102.055-35.79 156.569-41.06l4.546-.44c56.6-5.48 118.69-12.43 191.489-54.48 71.923-41.54 106.728-89.9 139.648-135.63l1.336-1.86c32.841-45.62 64.464-88.83 131.55-127.58 53.922-31.14 102.055-35.79 156.569-41.05l4.547-.44c56.599-5.48 118.689-12.44 191.49-54.48 71.88-41.52 107.14-90.1 140.5-136.07l1.13-1.56c33.26-45.83 65.19-89.23 131.77-127.94 53.57-30.69 101.45-35.31 155.68-40.55l4.97-.48c56.5-5.48 118.46-12.5 191.09-54.45 71.92-41.53 106.72-89.89 139.64-135.63l1.34-1.86c32.84-45.61 64.46-88.83 131.55-127.57 53.92-31.14 102.05-35.79 156.57-41.055l4.55-.44c56.59-5.484 118.68-12.439 191.48-54.484 71.89-41.517 107.15-90.107 140.51-136.079l1.37-1.884c33.33-45.919 65.42-89.427 132.53-128.187l-21.93-37.983Z"/><path fill="url(#o)" d="M2575.48 717.808c-75.56 43.64-112.15 93.633-146.1 140.403l-.61.845c-33.27 45.836-63.92 88.065-127.7 124.902-64.24 37.102-118.38 43.442-173.79 48.812-2.1.2-4.2.4-6.31.61-53.72 5.16-110.22 10.58-172.51 46.55-75.58 43.66-111.71 93.41-145.2 139.93l-.62.86c-32.78 45.54-62.97 87.47-126.71 124.28-64.09 37.02-118.13 43.41-173.39 48.77l-5.52.54-1.17.11c-53.18 5.1-109.11 10.48-170.66 45.49h-.01l-.93.54-.08.04-.04.02v.01l-.78.45c-74.49 43.49-110.76 93.19-144.48 139.66l-.37.51c-33.27 45.83-63.92 88.07-127.71 124.9-64.239 37.11-118.378 43.45-173.784 48.81-2.1.21-4.204.41-6.312.61-53.721 5.16-110.22 10.59-172.505 46.56-75.588 43.66-111.711 93.4-145.208 139.93l-.619.86h-.002c-32.776 45.53-62.961 87.46-126.704 124.28-64.243 37.1-118.383 43.44-173.788 48.81-2.1.2-4.205.4-6.314.61-53.72 5.16-110.218 10.58-172.503 46.55-75.562 43.64-112.15 93.64-146.097 140.41l-.613.84c-33.268 45.84-63.919 88.07-127.701 124.9l21.93 37.99c71.886-41.52 107.145-90.11 140.506-136.08l1.367-1.89c33.33-45.91 65.426-89.42 132.539-128.18 53.923-31.15 102.055-35.79 156.569-41.06l4.546-.44c56.6-5.48 118.69-12.43 191.489-54.48 71.921-41.54 106.727-89.89 139.646-135.63h.001l1.337-1.86c32.841-45.62 64.464-88.83 131.55-127.58 53.922-31.14 102.054-35.79 156.568-41.05h.003l4.544-.44c56.6-5.48 118.69-12.44 191.485-54.48 71.89-41.52 107.14-90.1 140.5-136.08l1.14-1.56c33.25-45.81 65.16-89.2 131.7-127.89.03-.02.06-.04.09-.05 53.56-30.68 101.44-35.3 155.65-40.54l2.11-.2c.95-.09 1.91-.19 2.87-.28 56.49-5.48 118.46-12.5 191.08-54.45 71.92-41.53 106.73-89.89 139.65-135.63l1.34-1.86c32.84-45.61 64.46-88.83 131.55-127.57 53.92-31.14 102.05-35.79 156.57-41.06l4.54-.43c56.6-5.49 118.69-12.44 191.49-54.49 71.88-41.515 107.14-90.105 140.5-136.078l1.37-1.884c33.33-45.918 65.43-89.427 132.54-128.187l-21.93-37.983Z"/><path fill="url(#p)" d="m2475.99 938.961-.61.845c-33.27 45.835-63.92 88.064-127.71 124.904-64.24 37.1-118.38 43.44-173.78 48.81-1.94.19-3.88.37-5.82.56l-.49.05c-53.73 5.16-110.22 10.58-172.51 46.55-75.59 43.66-111.71 93.41-145.21 139.93l-.62.86c-32.77 45.54-62.96 87.47-126.7 124.28-64.09 37.02-118.13 43.41-173.39 48.77-2.23.22-4.46.43-6.7.65-53.18 5.11-109.11 10.48-170.67 45.5v-.01l-.93.54-.03.02-.06.03-.02.01-.01.01-.77.44h.01c-74.5 43.5-110.77 93.2-144.5 139.67l-.37.51c-33.26 45.83-63.92 88.07-127.7 124.9-64.24 37.11-118.383 43.45-173.789 48.81-2.1.21-4.205.41-6.314.61-53.719 5.16-110.217 10.59-172.502 46.56-75.588 43.66-111.711 93.4-145.208 139.93l-.62.86c-32.777 45.53-62.962 87.46-126.706 124.28-64.243 37.1-118.382 43.44-173.787 48.81-2.1.2-4.205.4-6.314.61-53.72 5.16-110.219 10.58-172.503 46.55-75.562 43.64-112.15 93.64-146.097 140.41l-.613.84c-31.02 42.74-59.763 82.34-115.211 117.36l149.945-90.55 1.368-1.89c33.33-45.91 65.426-89.42 132.538-128.18 53.923-31.15 102.055-35.79 156.569-41.06l4.547-.44c56.6-5.48 118.689-12.43 191.489-54.48 71.922-41.54 106.728-89.9 139.647-135.63l1.337-1.86c32.84-45.62 64.464-88.83 131.549-127.58 53.924-31.14 102.055-35.79 156.569-41.05l4.547-.44c56.599-5.48 118.689-12.44 191.489-54.48 71.88-41.52 107.14-90.1 140.5-136.07l1.13-1.56c33.27-45.84 65.2-89.24 131.79-127.95 53.57-30.68 101.44-35.3 155.66-40.54l4.97-.48c56.5-5.48 118.46-12.5 191.09-54.45 71.92-41.53 106.72-89.89 139.64-135.63h.01l1.33-1.86c32.84-45.61 64.47-88.83 131.55-127.57 53.92-31.14 102.06-35.79 156.57-41.05l4.55-.44c56.6-5.49 118.69-12.44 191.48-54.49 71.89-41.52 107.15-90.11 140.51-136.078l1.37-1.884-35.49-25.767Z"/><path fill="url(#q)" d="M2271.33 1318.68c56.6-5.49 118.69-12.44 191.49-54.49l106.38-163.73-.61.85c-33.27 45.83-63.92 88.06-127.7 124.9-64.25 37.1-118.39 43.44-173.79 48.81l-2.06.2c-1.42.13-2.83.27-4.26.41-53.72 5.16-110.22 10.58-172.5 46.56-75.59 43.65-111.71 93.4-145.21 139.93l-.62.86c-32.77 45.53-62.96 87.46-126.7 124.27-64.09 37.02-118.13 43.41-173.39 48.77-2.23.22-4.46.43-6.69.65-53.18 5.11-109.11 10.48-170.67 45.49l-.94.54-.11.06c-.01.01-.02.01-.03.02l-.75.44c-74.49 43.49-110.76 93.19-144.49 139.66l-.36.51h-.01c-33.26 45.83-63.92 88.07-127.7 124.9-64.24 37.11-118.38 43.45-173.79 48.82l-6.31.6c-53.72 5.16-110.219 10.59-172.504 46.56-75.588 43.66-111.71 93.4-145.208 139.93l-.62.86c-32.777 45.53-62.962 87.46-126.706 124.28-64.243 37.1-118.382 43.44-173.787 48.81-2.1.2-4.205.4-6.314.61-53.72 5.16-110.218 10.58-172.503 46.55l21.931 37.99c53.923-31.15 102.055-35.79 156.569-41.06l4.547-.44c56.599-5.48 118.688-12.43 191.488-54.48 71.922-41.54 106.728-89.9 139.648-135.63l1.336-1.86c32.841-45.62 64.464-88.83 131.55-127.58 53.924-31.14 102.056-35.79 156.573-41.05l4.54-.44c56.6-5.48 118.69-12.44 191.49-54.48 71.88-41.52 107.14-90.1 140.5-136.08l1.13-1.55c33.27-45.84 65.2-89.24 131.79-127.95 53.57-30.68 101.44-35.3 155.66-40.54l4.97-.48c56.5-5.48 118.46-12.5 191.09-54.44 71.92-41.54 106.73-89.9 139.65-135.64l1.33-1.86c32.84-45.61 64.47-88.83 131.55-127.57 53.93-31.14 102.06-35.79 156.57-41.05l4.55-.44Z"/><path fill="url(#r)" d="M2317.93 1399.43c56.6-5.49 118.69-12.44 191.49-54.49l-21.93-37.98c-64.24 37.1-118.38 43.44-173.79 48.81-2.1.2-4.2.4-6.31.61-53.72 5.16-110.22 10.58-172.5 46.56-75.59 43.65-111.71 93.4-145.21 139.93l-.62.86c-32.78 45.53-62.96 87.46-126.71 124.27-64.09 37.02-118.12 43.41-173.39 48.77l-5.58.54-1.11.11c-53.18 5.1-109.11 10.48-170.66 45.49l-.94.54-.11.06-.02.01-.01.01-.76.44c-74.49 43.49-110.76 93.19-144.48 139.66l-.37.51c-33.26 45.83-63.92 88.07-127.7 124.9-64.25 37.11-118.39 43.45-173.79 48.81-2.1.21-4.21.41-6.31.61-53.72 5.16-110.223 10.59-172.508 46.56-75.588 43.66-111.711 93.4-145.208 139.93l-.619.86c-32.778 45.53-62.963 87.46-126.707 124.28-64.243 37.1-118.382 43.44-173.787 48.81-2.1.2-4.204.4-6.312.61h-.004c-53.719 5.16-110.217 10.58-172.501 46.55l22.145 37.86c53.837-31.03 101.914-35.67 156.356-40.93l4.545-.43c56.599-5.49 118.689-12.44 191.489-54.49 71.922-41.54 106.727-89.89 139.647-135.63l1.337-1.86c32.84-45.62 64.464-88.83 131.55-127.58 53.923-31.14 102.057-35.79 156.567-41.05l4.55-.44c56.6-5.48 118.69-12.44 191.49-54.48 71.88-41.52 107.13-90.1 140.5-136.07l1.13-1.56c33.26-45.84 65.19-89.24 131.79-127.95 53.56-30.68 101.44-35.3 155.65-40.54h.01l4.97-.48c56.5-5.48 118.46-12.5 191.08-54.44 71.93-41.54 106.73-89.9 139.65-135.64l1.34-1.86c32.84-45.61 64.46-88.83 131.55-127.57 53.92-31.14 102.05-35.79 156.57-41.05l4.54-.44Z"/><path fill="url(#s)" d="M2364.54 1480.18c56.6-5.49 118.69-12.44 191.49-54.49l-21.93-37.98c-64.25 37.1-118.38 43.44-173.79 48.81l-3.7.36-2.61.25h-.01c-53.72 5.16-110.21 10.58-172.5 46.56-75.58 43.65-111.71 93.4-145.2 139.93l-.62.86c-32.78 45.53-62.97 87.46-126.71 124.27-64.09 37.02-118.13 43.41-173.39 48.77l-1.88.19c-1.6.15-3.21.31-4.81.46h-.01c-53.18 5.11-109.11 10.48-170.66 45.5l-.01-.01-.92.54-.03.02-.06.03-.03.01-.01.01-.76.44c-74.5 43.5-110.77 93.2-144.5 139.67l-.36.51c-33.27 45.83-63.92 88.07-127.71 124.9-64.24 37.11-118.38 43.45-173.79 48.82l-6.31.6c-53.72 5.16-110.217 10.59-172.502 46.56-75.588 43.66-111.711 93.4-145.208 139.93l-.62.86c-32.777 45.53-62.962 87.46-126.706 124.28-64.243 37.1-118.382 43.44-173.787 48.81-2.1.2-4.204.4-6.313.61l202.03-11.44c71.922-41.54 106.728-89.89 139.647-135.63l1.338-1.86c32.84-45.62 64.463-88.83 131.549-127.58 53.922-31.14 102.052-35.78 156.572-41.05l4.54-.44c56.6-5.48 118.69-12.44 191.49-54.48 71.88-41.52 107.14-90.1 140.5-136.07l1.13-1.56c33.27-45.83 65.2-89.24 131.8-127.95 53.56-30.68 101.44-35.3 155.65-40.54l4.97-.48c56.5-5.48 118.46-12.5 191.09-54.44 71.92-41.54 106.73-89.9 139.65-135.64l1.33-1.85c32.84-45.62 64.47-88.84 131.55-127.58 53.93-31.14 102.06-35.79 156.57-41.05l4.55-.44Z"/><path fill="url(#t)" d="m2522.59 1019.71-.61.85c-33.27 45.83-63.92 88.06-127.7 124.9-64.24 37.1-118.38 43.44-173.79 48.81-2.1.2-4.2.4-6.31.61-53.72 5.16-110.22 10.58-172.5 46.55-75.59 43.66-111.71 93.41-145.21 139.94l-.62.86c-32.78 45.53-62.96 87.46-126.71 124.27-64.09 37.02-118.13 43.41-173.39 48.77-2.22.22-4.45.43-6.69.65-53.18 5.11-109.12 10.48-170.67 45.5v-.01l-.93.54-.03.02-.06.03-.02.01-.02.01-.76.44c-74.5 43.5-110.77 93.2-144.49 139.67l-.37.51c-33.27 45.83-63.92 88.07-127.71 124.9-64.24 37.11-118.38 43.45-173.783 48.81-2.099.21-4.204.41-6.312.61-53.721 5.16-110.219 10.59-172.504 46.56-75.589 43.66-111.711 93.4-145.209 139.93l-.62.86c-32.777 45.53-62.962 87.46-126.706 124.28-64.242 37.1-118.381 43.44-173.787 48.81-2.1.2-4.205.4-6.313.61-53.72 5.16-110.219 10.58-172.503 46.55-75.562 43.64-112.15 93.64-146.097 140.41l-.613.84 34.733 26.81 1.369-1.89c33.33-45.91 65.426-89.42 132.538-128.18 53.922-31.14 102.053-35.79 156.565-41.06h.004l4.546-.43c56.6-5.49 118.69-12.44 191.489-54.49 71.922-41.54 106.727-89.89 139.646-135.63h.001l1.338-1.86c32.84-45.62 64.463-88.83 131.549-127.58 53.924-31.14 102.056-35.79 156.571-41.05l4.544-.44c56.604-5.48 118.694-12.44 191.484-54.48 71.89-41.52 107.14-90.1 140.51-136.07l1.13-1.56c33.26-45.84 65.19-89.24 131.79-127.95 53.56-30.68 101.44-35.3 155.65-40.54h.01c1.65-.16 3.3-.32 4.97-.48 56.49-5.48 118.46-12.5 191.08-54.44 71.93-41.54 106.73-89.9 139.65-135.64l1.34-1.86c32.84-45.61 64.46-88.83 131.55-127.57 53.92-31.14 102.05-35.79 156.57-41.05l4.54-.44c56.6-5.49 118.69-12.44 191.49-54.49 71.89-41.51 107.15-90.1 140.51-136.08l1.36-1.88-35.49-25.77Z"/><path fill="url(#u)" d="m2453.21 1642.12 4.54-.44-4.23-43.66c-2.1.2-4.2.41-6.31.61-53.72 5.16-110.22 10.58-172.5 46.56-75.59 43.65-111.72 93.4-145.21 139.93l-.62.86c-32.78 45.53-62.97 87.46-126.71 124.27-64.09 37.02-118.13 43.41-173.39 48.77l-5.54.54-1.15.11c-53.18 5.11-109.11 10.48-170.66 45.49v-.01l-.94.55-.05.03-.03.01-.04.02-.04.03-.75.43c-74.48 43.49-110.75 93.2-144.47 139.66l-.37.51c-33.27 45.83-63.92 88.07-127.71 124.91-64.24 37.1-118.38 43.44-173.78 48.81l-6.32.6c-53.72 5.16-110.22 10.59-172.5 46.56-75.588 43.66-111.711 93.4-145.209 139.93l-.62.86 167.759-102.81c53.92-31.14 102.05-35.78 156.57-41.05l4.55-.44c56.59-5.48 118.68-12.44 191.48-54.48 71.88-41.52 107.14-90.1 140.5-136.07l1.14-1.56c33.26-45.84 65.19-89.24 131.79-127.95 53.56-30.68 101.44-35.3 155.66-40.54l4.97-.48c56.49-5.48 118.46-12.5 191.08-54.44 71.92-41.54 106.73-89.9 139.65-135.64l1.34-1.85c32.84-45.62 64.46-88.84 131.55-127.58 53.92-31.14 102.05-35.79 156.56-41.05h.01Z"/><path fill="url(#v)" d="m2499.81 1722.87 4.55-.44-4.23-43.66c-1.6.16-3.2.31-4.8.46l-1.51.15c-53.73 5.16-110.22 10.58-172.51 46.56-75.59 43.65-111.71 93.4-145.21 139.93l-.62.86c-32.77 45.53-62.96 87.46-126.7 124.27-64.09 37.02-118.13 43.41-173.39 48.77-2.21.22-4.42.43-6.63.64l-.06.01h-.01c-53.18 5.11-109.11 10.48-170.66 45.49l-.94.54-.03.02-.05.03-.03.01c-.01.01-.02.01-.03.02l-.75.43v.01c-74.49 43.49-110.76 93.19-144.49 139.66l-.37.51c-33.26 45.83-63.92 88.07-127.7 124.91-64.24 37.1-118.38 43.44-173.79 48.81l-6.31.6c-53.72 5.16-110.22 10.59-172.5 46.56l21.93 37.99c53.92-31.15 102.05-35.79 156.56-41.06h.01l4.54-.44c56.6-5.48 118.69-12.44 191.49-54.48 71.88-41.52 107.14-90.1 140.5-136.07l1.13-1.56c33.27-45.83 65.2-89.24 131.79-127.95 53.57-30.68 101.44-35.3 155.66-40.54l4.97-.48c56.5-5.48 118.46-12.5 191.09-54.44 71.92-41.54 106.72-89.9 139.64-135.64l1.34-1.85c32.84-45.62 64.46-88.84 131.55-127.58 53.92-31.14 102.05-35.79 156.57-41.05Z"/><path fill="url(#w)" d="m2546.42 1803.62 4.54-.44-4.23-43.66c-2.1.2-4.2.41-6.31.61-53.72 5.16-110.22 10.58-172.5 46.56-75.59 43.65-111.71 93.4-145.21 139.93l-.62.86c-32.78 45.53-62.96 87.46-126.71 124.27-64.09 37.02-118.12 43.42-173.39 48.78-1.83.17-3.67.35-5.52.53l-1.17.11c-53.18 5.11-109.11 10.48-170.66 45.49h-.01l-.93.54-.03.02-.06.03-.02.02h-.02l-.76.44c-74.5 43.5-110.77 93.2-144.49 139.67l-.37.51c-33.26 45.83-63.92 88.07-127.71 124.91-64.24 37.1-118.38 43.44-173.78 48.81l-6.32.6c-53.72 5.16-110.21 10.59-172.5 46.56l178.5-3.07 4.55-.44c56.6-5.48 118.69-12.44 191.49-54.48 71.88-41.52 107.13-90.1 140.49-136.07l1.14-1.56c33.26-45.83 65.19-89.24 131.79-127.95 53.56-30.68 101.44-35.3 155.66-40.54l4.97-.48c56.49-5.48 118.46-12.5 191.08-54.44 71.93-41.54 106.73-89.9 139.65-135.64l1.34-1.85c32.84-45.62 64.46-88.83 131.55-127.58 53.92-31.14 102.05-35.79 156.57-41.05Z"/><path fill="url(#x)" d="m2593.02 1884.37 4.55-.44-4.23-43.66c-2.1.2-4.21.41-6.32.61-53.72 5.16-110.21 10.59-172.5 46.56-75.59 43.65-111.71 93.4-145.21 139.93l-.62.86c-32.77 45.53-62.96 87.46-126.7 124.27-64.09 37.02-118.13 43.41-173.39 48.78-2.23.21-4.46.43-6.69.64-53.19 5.11-109.12 10.48-170.68 45.5v-.01l-.93.54-.01.01-.08.05-.02.01-.76.43v.01c-74.51 43.49-110.78 93.2-144.51 139.67l-.36.51c-31.02 42.74-59.77 82.35-115.23 117.37l149.95-90.55 1.13-1.56c33.27-45.83 65.2-89.24 131.79-127.95 53.57-30.68 101.44-35.3 155.66-40.54l4.97-.48c56.5-5.48 118.46-12.5 191.09-54.44 71.92-41.54 106.73-89.9 139.65-135.64l1.33-1.85c32.84-45.62 64.47-88.83 131.55-127.58 53.92-31.14 102.06-35.79 156.57-41.05Z"/><path fill="url(#y)" d="M2444.72 2295.25c32.84-45.62 64.46-88.83 131.55-127.58l-21.93-37.98c-75.59 43.65-111.71 93.4-145.21 139.93l-.62.86c-32.78 45.53-62.96 87.46-126.7 124.27-64.09 37.02-118.13 43.42-173.39 48.78-2.21.21-4.42.42-6.63.64h-.06c-53.19 5.11-109.13 10.48-170.69 45.5l-.92.53-.01.01-.09.05-.01.01-.76.43v.01l22.77 37.49c53.56-30.68 101.44-35.3 155.66-40.54l4.97-.48c56.5-5.48 118.46-12.5 191.09-54.44 71.92-41.54 106.72-89.9 139.64-135.64l1.34-1.85Z"/><path fill="url(#z)" d="m2489.99 2377.85 1.34-1.85-35.59-25.63-.62.86c-32.78 45.53-62.96 87.46-126.71 124.27-64.09 37.02-118.13 43.42-173.39 48.78-2.22.21-4.45.43-6.69.64l202.01-11.43c71.92-41.54 106.73-89.9 139.65-135.64Z"/><path fill="url(#A)" d="m2406.6 1561.37 4.55-.44 153.55-83.75c-57.35 29.44-107.04 35.17-157.78 40.09l-4.95.48-1.37.13c-53.72 5.16-110.22 10.59-172.5 46.56-75.59 43.65-111.71 93.4-145.21 139.93l-.62.86c-32.78 45.53-62.96 87.46-126.7 124.27-64.09 37.02-118.13 43.41-173.39 48.77-2.23.22-4.46.43-6.7.65-53.18 5.11-109.11 10.48-170.65 45.49l-.01-.01-.94.55-.05.03-.02.01-.04.02-.04.03-.75.43c-74.49 43.49-110.76 93.2-144.48 139.66l-.37.5c-33.26 45.84-63.92 88.08-127.7 124.91-64.25 37.11-118.38 43.45-173.79 48.82l-6.31.6c-53.72 5.16-110.22 10.59-172.506 46.56-75.588 43.66-111.711 93.4-145.208 139.93l-.621.86-11.734 15.69 33.239 24.5 14.704-15.42c32.841-45.62 64.464-88.83 131.55-127.57 53.926-31.15 102.056-35.79 156.566-41.06l4.55-.44c56.6-5.48 118.69-12.44 191.49-54.48 71.88-41.52 107.13-90.1 140.5-136.07l1.13-1.56c33.26-45.83 65.19-89.24 131.79-127.95 53.56-30.68 101.44-35.3 155.66-40.54l4.97-.48c56.5-5.48 118.46-12.5 191.09-54.44 71.92-41.54 106.72-89.9 139.64-135.64l1.34-1.85c32.84-45.62 64.46-88.84 131.55-127.58 53.92-31.14 102.05-35.79 156.57-41.05Z"/><path fill="url(#B)" d="M2351.51 2133.75c32.84-45.62 64.46-88.83 131.55-127.58l-21.93-37.98c-75.59 43.65-111.71 93.4-145.21 139.93l-.62.86c-32.78 45.53-62.96 87.46-126.71 124.27-64.09 37.02-118.12 43.42-173.38 48.78-2.23.21-4.46.43-6.7.64-53.18 5.11-109.11 10.48-170.65 45.49l-.01-.01-.94.55-.04.02-.04.02-.03.02-.03.02-.76.44c-74.49 43.49-110.76 93.2-144.48 139.66l-.37.51 34.73 26.82 1.13-1.56c33.26-45.83 65.19-89.24 131.79-127.95 53.56-30.68 101.44-35.3 155.66-40.54l4.97-.48c56.49-5.48 118.46-12.5 191.08-54.44 71.93-41.54 106.73-89.9 139.65-135.64l1.34-1.85Z"/><path fill="url(#C)" d="M2398.11 2214.5c32.84-45.62 64.47-88.83 131.55-127.58l-21.93-37.98c-75.58 43.65-111.71 93.4-145.21 139.93l-.61.86c-32.78 45.53-62.97 87.46-126.71 124.27-64.09 37.02-118.13 43.42-173.39 48.78-2.23.21-4.46.43-6.69.64h-.01c-53.17 5.11-109.1 10.48-170.65 45.49h-.01l-.93.54-.12.07h-.01l-.77.44v.01l22.8 37.48c53.56-30.68 101.44-35.3 155.65-40.54l4.97-.48c56.5-5.48 118.46-12.5 191.09-54.44 71.92-41.54 106.73-89.9 139.65-135.64l1.33-1.85Z"/><path stroke="url(#D)" stroke-width="3.789" d="m-313.713 1147.5 5.996 43.49 4.545-.44c56.6-5.48 118.689-12.44 191.489-54.48 71.922-41.54 106.727-89.9 139.647-135.64l1.337-1.853c32.84-45.617 64.464-88.831 131.55-127.576 53.923-31.143 102.055-35.79 156.57-41.053l4.545-.439c56.6-5.485 118.689-12.44 191.489-54.484 71.881-41.515 107.137-90.097 140.5-136.071l1.132-1.561c33.261-45.826 65.188-89.229 131.769-127.933 53.572-30.692 101.455-35.316 155.681-40.552 1.651-.16 3.307-.319 4.969-.481 56.494-5.48 118.464-12.5 191.084-54.445 71.92-41.538 106.73-89.896 139.65-135.632l1.34-1.858c32.84-45.617 64.46-88.832 131.55-127.576 53.92-31.143 102.05-35.79 156.56-41.053h.01l4.54-.439c56.6-5.485 118.69-12.44 191.49-54.485 71.89-41.516 107.15-90.106 140.51-136.078l1.36-1.885c33.33-45.918 65.43-89.427 132.54-128.187 53.92-31.143 102.06-35.79 156.57-41.053l4.55-.439c56.6-5.485 118.69-12.44 191.49-54.485 71.92-41.537 106.72-89.893 139.64-135.63v-.002l1.34-1.858-35.59-25.629-.62.859c-32.78 45.532-62.96 87.462-126.71 124.277-64.24 37.103-118.38 43.442-173.78 48.811l-6.32.608c-53.72 5.16-110.21 10.586-172.5 46.558-75.56 43.64-112.15 93.633-146.1 140.403l-.61.844c-33.27 45.836-63.92 88.066-127.7 124.903-64.24 37.103-118.38 43.441-173.79 48.81-2.1.204-4.2.406-6.31.608-53.72 5.16-110.22 10.587-172.5 46.559-75.59 43.655-111.71 93.4-145.21 139.93l-.62.86v.001c-32.78 45.531-62.96 87.46-126.71 124.275-64.09 37.014-118.125 43.412-173.387 48.772-2.226.216-4.457.43-6.693.645-53.181 5.107-109.116 10.478-170.67 45.498l-.004-.006-.928.538-.029.017-.859.494.003.004c-74.499 43.491-110.77 93.198-144.496 139.665l-.369.508-.001.001c-33.264 45.833-63.919 88.069-127.703 124.907-64.243 37.102-118.382 43.441-173.787 48.81-2.1.204-4.204.406-6.312.608-53.721 5.159-110.22 10.586-172.505 46.558-75.588 43.655-111.71 93.4-145.208 139.93l-.62.86v.002c-32.777 45.53-62.962 87.46-126.706 124.27-64.243 37.11-118.382 43.45-173.787 48.81-1.913.19-3.83.37-5.75.56m-.562.05.562-.05m-.562.05c.187-.02.374-.03.562-.05M994.112 549.178c56.498-5.48 118.458-12.501 191.088-54.445 71.92-41.538 106.73-89.896 139.65-135.633v-.001l1.33-1.858c32.84-45.617 64.47-88.831 131.55-127.575 53.92-31.143 102.06-35.79 156.57-41.053l4.55-.439c56.6-5.485 118.69-12.439 191.49-54.484 71.88-41.516 107.14-90.106 140.5-136.078l1.37-1.886c33.33-45.919 65.42-89.427 132.54-128.187 53.92-31.143 102.05-35.79 156.57-41.053 1.51-.145 3.02-.291 4.54-.439 56.6-5.485 118.69-12.439 191.49-54.484 71.92-41.538 106.73-89.895 139.65-135.632l1.34-1.859-35.59-25.629-.62.861c-32.78 45.531-62.97 87.461-126.71 124.276-64.24 37.103-118.38 43.441-173.79 48.81-2.1.203-4.2.406-6.31.608-53.72 5.159-110.22 10.585-172.5 46.557-75.56 43.641-112.15 93.634-146.1 140.404l-.61.844c-33.27 45.836-63.92 88.066-127.7 124.903-64.25 37.103-118.39 43.442-173.79 48.811l-2.68.258M994.112 549.178l-2.316.224m2.316-.224-2.316.224m-2.653.256c-54.226 5.237-102.11 9.86-155.681 40.552-66.582 38.704-98.509 82.107-131.769 127.932l-1.131 1.56c-33.364 45.975-68.619 94.558-140.502 136.073-72.799 42.045-134.888 49-191.488 54.485l-4.545.439h-.002c-54.514 5.263-102.645 9.91-156.568 41.052-67.086 38.745-98.71 81.959-131.55 127.579l-1.337 1.86c-32.92 45.73-67.726 94.09-139.648 135.63-72.799 42.04-134.888 49-191.488 54.48l-4.545.44-5.996-43.49m1256.25-678.592 2.653-.256m-2.653.256 2.653-.256M-267.107 1228.25l.59-.05m-.59.05c.196-.02.393-.03.59-.05m624.548-360.99c-53.721 5.16-110.22 10.586-172.505 46.559-75.588 43.655-111.71 93.401-145.208 139.931l-.62.86c-32.777 45.53-62.962 87.46-126.706 124.27-64.243 37.11-118.382 43.45-173.787 48.82-1.904.18-3.811.36-5.722.55m624.548-360.99.607-.058m-.607.058.607-.058M1608.3 145.125l3.64-.35m-3.64.35c-53.72 5.16-110.21 10.586-172.5 46.557-75.59 43.655-111.71 93.401-145.21 139.931l-.62.861c-32.77 45.531-62.96 87.461-126.7 124.275-64.09 37.014-118.13 43.412-173.391 48.772-2.225.216-4.456.43-6.691.645-53.179 5.106-109.112 10.477-170.663 45.493l-.004-.006-.967.56-.051.029-.807.465.002.004c-74.498 43.491-110.769 93.198-144.495 139.665l-.368.507c-33.265 45.834-63.92 88.071-127.705 124.909-64.243 37.103-118.382 43.442-173.787 48.811l-5.705.549M1608.3 145.125l3.64-.35m675.98-237.538c-54.51 5.263-102.64 9.91-156.57 41.052-67.11 38.76-99.21 82.269-132.53 128.187l-1.37 1.884c-33.36 45.973-68.62 94.563-140.51 136.08-72.8 42.044-134.89 48.999-191.49 54.484l-4.54.439c-54.52 5.264-102.65 9.91-156.57 41.053-67.09 38.745-98.71 81.959-131.55 127.576l-1.34 1.858v.001c-32.92 45.736-67.72 94.094-139.65 135.631-72.62 41.945-134.59 48.965-191.08 54.445-1.66.162-3.32.322-4.97.481-54.228 5.237-102.111 9.861-155.683 40.552-66.582 38.705-98.508 82.107-131.768 127.933l-1.132 1.56c-33.363 45.975-68.619 94.557-140.501 136.072-72.799 42.045-134.889 49-191.488 54.485l-4.547.439h-.001c-54.513 5.264-102.645 9.911-156.568 41.051-67.086 38.75-98.709 81.96-131.549 127.58l-1.338 1.86c-32.92 45.73-67.725 94.09-139.647 135.63-72.8 42.04-134.889 49-191.488 54.48l-4.545.44-5.997-43.49c1.181-.11 2.36-.22 3.538-.34M2287.92-92.763l.6-.058m-.6.058.6-.058M-214.19 1308.4c55.406-5.37 109.545-11.71 173.788-48.81 63.744-36.82 93.929-78.75 126.706-124.28l.62-.86c33.497-46.53 69.62-96.28 145.208-139.931 62.283-35.971 118.78-41.398 172.499-46.558h.004l6.313-.608c55.406-5.37 109.545-11.708 173.788-48.811 63.785-36.839 94.439-79.075 127.705-124.91l.367-.506c33.723-46.463 69.992-96.166 144.478-139.655l-.002-.003.793-.457.036-.021.029-.017.047-.027.943-.546.003.006c61.547-35.012 117.476-40.383 170.655-45.489v-.001M-214.19 1308.4l-2.774.26m2.774-.26c-.924.09-1.848.17-2.774.26M1029.79 586.916l.11-.01m-.11.01.11-.01m625.01-361.031c-53.72 5.159-110.22 10.586-172.5 46.558-75.59 43.655-111.71 93.4-145.21 139.93l-.62.86v.001c-32.78 45.531-62.96 87.461-126.71 124.275-64.09 37.014-118.12 43.412-173.39 48.772-2.19.213-4.38.424-6.58.635m625.01-361.031 2.36-.227m-2.36.227 2.36-.227M-173.896 1389.75l.536-.05m-.536.05-144.498 81.13m144.498-81.13c.179-.01.357-.03.536-.05M1076.4 667.667l.75-.073m-.75.073h-.01c-53.18 5.107-109.107 10.478-170.658 45.494l-.003-.006-.97.562-.049.029-.028.015-.007.004-.774.446.002.004c-74.494 43.491-110.764 93.196-144.489 139.662l-.367.506c-33.266 45.834-63.92 88.07-127.705 124.909-64.243 37.098-118.383 43.438-173.788 48.808-2.1.21-4.203.41-6.312.61-53.72 5.16-110.219 10.59-172.504 46.56-75.588 43.65-111.711 93.4-145.209 139.93l-.619.86c-32.777 45.53-62.962 87.46-126.707 124.27-64.242 37.11-118.382 43.45-173.787 48.82-1.922.18-3.847.37-5.776.55M1076.4 667.667l.75-.073M2334.84-56.11c55.41-5.37 109.55-11.708 173.79-48.811l21.93 37.984c-72.8 42.045-134.89 49-191.49 54.484l-4.54.44c-54.52 5.263-102.65 9.91-156.57 41.053-67.11 38.76-99.21 82.268-132.54 128.186l-1.37 1.886c-33.36 45.972-68.62 94.561-140.5 136.077-72.8 42.045-134.89 49-191.49 54.485l-4.55.439c-54.51 5.264-102.64 9.911-156.57 41.054-67.08 38.745-98.71 81.959-131.55 127.575l-1.33 1.857v.001c-32.92 45.737-67.73 94.095-139.65 135.633-72.63 41.945-134.59 48.965-191.09 54.445-1.66.162-3.32.322-4.97.481-54.22 5.236-102.105 9.86-155.677 40.552-66.582 38.704-98.509 82.107-131.769 127.932l-1.131 1.56c-33.363 45.975-68.619 94.558-140.501 136.077-72.799 42.04-134.889 49-191.488 54.48l-4.545.44h-.002c-54.514 5.26-102.646 9.91-156.569 41.05-67.086 38.75-98.709 81.96-131.549 127.58l-1.338 1.86c-32.919 45.73-67.725 94.09-139.647 135.63-72.8 42.04-134.889 49-191.488 54.48l-4.545.44h-.003c-52.458 5.07-99.006 9.56-150.492 37.64M2334.84-56.11l-2.07.201m2.07-.2-2.07.2M1128.96 791.909c-54.23 5.236-102.11 9.86-155.682 40.551-66.581 38.705-98.508 82.108-131.768 127.934l-1.131 1.558c-33.364 45.978-68.619 94.558-140.501 136.078-72.8 42.04-134.889 49-191.489 54.48l-4.547.44h-.003c-54.512 5.26-102.643 9.91-156.565 41.05-67.086 38.75-98.709 81.96-131.55 127.58l-1.337 1.86c-32.919 45.73-67.725 94.09-139.647 135.63-72.8 42.04-134.89 49-191.489 54.48l-4.544.44h-.003c-54.514 5.27-102.645 9.91-156.568 41.06l-21.93-37.99c62.285-35.97 118.783-41.4 172.504-46.56m1256.25-678.591.76-.074m-.76.074.76-.074M-127.29 1470.5l.592-.05m-.592.05c.197-.01.394-.03.592-.05M1175.57 872.659c-54.23 5.236-102.11 9.86-155.69 40.552-66.577 38.704-98.504 82.107-131.764 127.929l-1.132 1.56-.002.01c-33.362 45.97-68.618 94.55-140.498 136.07-72.8 42.04-134.889 49-191.489 54.48l-4.546.44h-.002c-54.513 5.26-102.645 9.91-156.567 41.05-67.086 38.75-98.709 81.96-131.55 127.58l-1.337 1.86h-.002c-32.919 45.73-67.724 94.09-139.645 135.63-72.8 42.04-134.89 49-191.489 54.48l-4.546.44h-.003c-54.513 5.27-102.644 9.91-156.566 41.06l-21.931-37.99c62.284-35.97 118.781-41.4 172.5-46.56h.003l6.314-.6c55.405-5.37 109.544-11.71 173.787-48.81 63.743-36.82 93.928-78.75 126.705-124.28h.002l.619-.86c33.497-46.53 69.62-96.27 145.208-139.93 62.284-35.97 118.782-41.4 172.501-46.56h.002m631.118-317.551.83-.081m-.83.081.83-.081M544.452 1190.21l1.009-.1m-1.009.1c.336-.03.673-.06 1.009-.1m624.149-360.943 3.17-.305m-3.17.305c-53.18 5.107-109.12 10.478-170.666 45.494l-.003-.005-.97.562-.049.028-.028.016-.007.004-.774.445.002.005c-74.494 43.491-110.765 93.196-144.489 139.664l-.368.5c-33.265 45.84-63.919 88.07-127.705 124.91-64.243 37.11-118.382 43.44-173.787 48.81l-5.305.51m624.149-360.943 3.17-.305m49.39 124.547c-54.22 5.236-102.11 9.86-155.68 40.552-66.581 38.709-98.508 82.109-131.768 127.929l-1.132 1.56c-33.363 45.98-68.619 94.56-140.501 136.08-72.799 42.04-134.888 49-191.488 54.48l-4.545.44c-54.515 5.26-102.647 9.91-156.571 41.05-67.085 38.75-98.709 81.96-131.549 127.58l-1.337 1.86c-32.92 45.73-67.725 94.09-139.648 135.63-72.799 42.04-134.888 49-191.488 54.48l-4.545.44c-54.515 5.27-102.647 9.91-156.57 41.06-67.113 38.76-99.209 82.26-132.539 128.18l-1.368 1.89 111.976-168.06c62.285-35.97 118.784-41.4 172.505-46.56l6.312-.6c55.405-5.37 109.544-11.71 173.787-48.81 63.744-36.82 93.929-78.75 126.706-124.28l.62-.86c33.497-46.53 69.62-96.28 145.208-139.93 62.285-35.97 118.784-41.4 172.504-46.56 2.109-.2 4.213-.4 6.313-.61 55.405-5.37 109.544-11.7 173.787-48.81 63.785-36.84 94.439-79.07 127.704-124.9l.368-.51c33.724-46.47 69.994-96.172 144.489-139.662l-.01-.003.78-.449.01-.005.04-.021 1.02-.589v.005c61.55-35.011 117.47-40.382 170.65-45.489 2.24-.215 4.47-.429 6.7-.645 55.26-5.36 109.3-11.758 173.39-48.772 63.74-36.816 93.93-78.746 126.7-124.277l.62-.859c33.5-46.529 69.62-96.275 145.21-139.93 62.28-35.971 118.78-41.398 172.5-46.558l6.32-.608c55.4-5.37 109.54-11.708 173.79-48.811 63.78-36.837 94.43-79.067 127.7-124.903l.61-.844c33.95-46.77 70.53-96.764 146.1-140.404 62.28-35.972 118.78-41.398 172.5-46.558M1222.17 953.409l1.92-.185m-1.92.185 1.92-.185m1244.26-766.476 3.44-.33m-3.44.33 3.44-.33m2.87-.277 4.23 43.656-4.54.44h-.01c-54.51 5.263-102.64 9.91-156.56 41.053-67.12 38.76-99.21 82.268-132.54 128.187l-1.37 1.884c-33.36 45.972-68.62 94.563-140.51 136.079-72.79 42.045-134.88 49-191.48 54.485l-4.55.439v.001c-54.52 5.263-102.65 9.91-156.57 41.052-67.09 38.745-98.71 81.959-131.55 127.576l-1.34 1.857c-32.91 45.737-67.72 94.094-139.64 135.633-72.63 41.944-134.59 48.965-191.09 54.445l-3.05.296m1250.57-767.083-2.87.277m2.87-.277-2.87.277M18.84 1712.15c55.405-5.37 109.544-11.71 173.787-48.81 63.743-36.82 93.928-78.75 126.705-124.28l.62-.86c33.497-46.53 69.62-96.28 145.208-139.93 62.284-35.97 118.782-41.4 172.502-46.56h.003c2.108-.2 4.212-.4 6.312-.61 55.406-5.37 109.545-11.7 173.788-48.81 63.785-36.84 94.439-79.07 127.705-124.91l.368-.5c33.725-46.47 69.992-96.18 144.492-139.67l.78-.45.02-.01.06-.04.96-.55h.01c61.55-35.01 117.48-40.386 170.66-45.492v-.001c2.24-.215 4.47-.429 6.69-.645 55.26-5.36 109.3-11.758 173.39-48.772 63.75-36.815 93.93-78.746 126.71-124.278l.62-.858c33.5-46.53 69.62-96.275 145.21-139.93 62.28-35.972 118.78-41.399 172.5-46.558 2.11-.202 4.21-.405 6.31-.608 55.41-5.369 109.55-11.708 173.79-48.811 63.78-36.837 94.43-79.067 127.7-124.903l.61-.844c33.95-46.77 70.54-96.763 146.1-140.403 62.28-35.971 118.78-41.398 172.5-46.558l6.32-.608 4.23 43.657-4.55.439c-54.52 5.264-102.65 9.911-156.57 41.053-67.11 38.76-99.21 82.269-132.54 128.187l-1.37 1.886c-33.36 45.972-68.61 94.562-140.5 136.078-72.8 42.044-134.89 48.999-191.49 54.484l-4.54.439c-54.52 5.263-102.65 9.91-156.57 41.053-67.09 38.745-98.71 81.959-131.55 127.576l-1.34 1.859c-32.92 45.736-67.73 94.094-139.65 135.631-72.62 41.947-134.59 48.967-191.08 54.447-1.67.16-3.32.32-4.97.48-54.23 5.24-102.11 9.86-155.68 40.55-66.59 38.71-98.51 82.11-131.772 127.93l-1.133 1.56-.001.01c-33.363 45.97-68.618 94.55-140.499 136.07-72.799 42.04-134.889 49-191.489 54.48l-4.545.44c-54.515 5.26-102.647 9.91-156.57 41.05-67.086 38.75-98.709 81.96-131.55 127.58l-1.337 1.86h-.001c-32.919 45.73-67.724 94.09-139.646 135.63-72.799 42.04-134.889 49-191.488 54.48l-4.545.44c-54.515 5.27-102.647 9.91-156.571 41.06-67.112 38.76-99.209 82.26-132.538 128.18l-1.368 1.89-34.734-26.81.613-.84c33.947-46.77 70.535-96.77 146.097-140.41 62.285-35.97 118.784-41.4 172.505-46.56 1.638-.15 3.274-.31 4.907-.47m1.405-.13-1.405.13m1.405-.13c-.468.04-.936.09-1.405.13M1934.54 710.376l3.4-.326m-3.4.326v.001c-53.72 5.159-110.22 10.586-172.5 46.556-75.59 43.656-111.71 93.401-145.21 139.931l-.62.862c-32.77 45.53-62.96 87.46-126.7 124.274-64.09 37.01-118.13 43.41-173.39 48.77-2.23.22-4.46.43-6.69.65h-.01c-53.18 5.1-109.11 10.48-170.66 45.49l-.97.55-.05.04-.03.01-.77.45c-74.5 43.49-110.77 93.2-144.497 139.67l-.368.51c-33.265 45.83-63.92 88.06-127.705 124.9-64.242 37.11-118.382 43.45-173.787 48.81-2.1.21-4.205.41-6.314.61-53.72 5.16-110.219 10.59-172.503 46.56-75.588 43.65-111.711 93.4-145.208 139.93l-.619.86c-32.778 45.53-62.962 87.46-126.706 124.28-64.243 37.1-118.383 43.44-173.788 48.81l-6.312.6c-53.72 5.16-110.22 10.59-172.505 46.56-75.562 43.64-112.15 93.64-146.097 140.41l-.613.84 34.735 26.81 1.368-1.89c33.329-45.92 65.425-89.42 132.537-128.18 53.923-31.15 102.055-35.79 156.568-41.06h.003l4.545-.44c56.6-5.48 118.69-12.44 191.489-54.48 71.923-41.54 106.728-89.9 139.647-135.63l1.337-1.86c32.84-45.62 64.464-88.83 131.55-127.58 53.922-31.14 102.052-35.79 156.565-41.05h.003l4.547-.44c56.6-5.48 118.69-12.44 191.489-54.48 71.882-41.52 107.138-90.1 140.499-136.08l1.13-1.56c33.26-45.82 65.19-89.22 131.77-127.93 53.57-30.69 101.46-35.31 155.68-40.55l4.97-.48c56.5-5.48 118.46-12.5 191.09-54.45 71.92-41.53 106.73-89.891 139.64-135.627l.01-.002 1.33-1.858c32.84-45.617 64.47-88.831 131.55-127.576 53.93-31.143 102.06-35.79 156.57-41.053l4.55-.439c56.6-5.484 118.69-12.439 191.49-54.484 71.88-41.514 107.14-90.103 140.5-136.073v-.004l1.37-1.887c33.33-45.918 65.43-89.427 132.54-128.187 53.92-31.143 102.05-35.789 156.57-41.053l4.54-.439-4.23-43.657-6.31.608c-53.72 5.159-110.22 10.586-172.5 46.558-75.57 43.64-112.15 93.633-146.1 140.403l-.61.845-.01.002c-33.26 45.835-63.91 88.064-127.69 124.901-64.25 37.103-118.39 43.441-173.79 48.81l-2.92.282m-3.4.326c1.14-.108 2.27-.217 3.4-.326M730.875 1513.21l1.359-.13m-1.359.13h-.002c-53.72 5.16-110.218 10.59-172.501 46.56-75.589 43.66-111.711 93.4-145.208 139.93l-.62.86c-32.777 45.53-62.962 87.46-126.706 124.28-64.243 37.1-118.382 43.44-173.787 48.81l-6.314.6-.004.01c-53.72 5.16-110.216 10.58-172.5 46.55-75.561 43.64-112.149 93.64-146.096 140.41l-.613.84c-33.268 45.84-63.919 88.07-127.701 124.9l21.931 37.99c71.884-41.52 107.143-90.11 140.503-136.08h.002l1.368-1.89c33.329-45.91 65.425-89.42 132.537-128.18 53.922-31.15 102.053-35.79 156.566-41.06h.003l4.547-.44c56.6-5.48 118.689-12.44 191.489-54.48 71.922-41.54 106.728-89.9 139.647-135.63l1.337-1.86c32.84-45.62 64.463-88.83 131.549-127.58 53.923-31.14 102.054-35.79 156.568-41.05h.001l4.547-.44c56.6-5.48 118.689-12.44 191.489-54.48 71.883-41.52 107.133-90.1 140.503-136.08l1.13-1.56c33.26-45.82 65.19-89.22 131.77-127.93 53.57-30.69 101.45-35.31 155.68-40.55l4.97-.48c56.5-5.48 118.46-12.5 191.08-54.45 71.93-41.53 106.73-89.89 139.65-135.63l1.34-1.86c32.84-45.613 64.46-88.828 131.55-127.573 53.92-31.142 102.05-35.789 156.57-41.052l4.54-.44c56.6-5.485 118.69-12.439 191.49-54.484 71.89-41.516 107.15-90.105 140.51-136.078l1.37-1.886c33.32-45.918 65.42-89.426 132.53-128.186l-21.93-37.984c-75.56 43.64-112.15 93.633-146.09 140.403l-.62.844c-33.26 45.836-63.92 88.066-127.7 124.904-64.24 37.103-118.38 43.441-173.79 48.81-2.1.204-4.2.406-6.31.608-53.72 5.16-110.22 10.586-172.5 46.558-75.59 43.655-111.71 93.401-145.21 139.93l-.62.859v.001c-32.78 45.536-62.96 87.466-126.71 124.276-64.09 37.01-118.12 43.41-173.39 48.77-2.22.22-4.45.43-6.69.65-53.18 5.1-109.12 10.48-170.67 45.5v-.01l-.93.54-.03.01-.86.5c-74.49 43.49-110.77 93.2-144.49 139.67l-.37.51c-33.26 45.83-63.919 88.06-127.704 124.9-64.243 37.11-118.382 43.45-173.787 48.81l-4.955.48m-1.359.13c.453-.04.906-.09 1.359-.13m676.356-236.67c-54.22 5.24-102.11 9.86-155.68 40.55-66.58 38.71-98.5 82.11-131.77 127.93l-1.13 1.57c-33.36 45.97-68.62 94.55-140.498 136.07-72.799 42.04-134.889 49-191.488 54.48l-4.545.44h-.003c-54.514 5.26-102.645 9.91-156.568 41.05-67.086 38.75-98.709 81.96-131.549 127.58l-1.338 1.86c-32.919 45.73-67.724 94.09-139.646 135.63-72.8 42.04-134.89 49-191.489 54.48l-4.545.44h-.003c-54.514 5.27-102.645 9.91-156.568 41.06-67.112 38.76-99.209 82.26-132.538 128.18l-1.368 1.89c-33.36 45.97-68.62 94.56-140.505 136.08l-21.93-37.99c63.782-36.83 94.433-79.06 127.7-124.9l.614-.84c33.947-46.77 70.535-96.77 146.097-140.41 62.285-35.97 118.784-41.4 172.504-46.56l6.312-.6c55.406-5.37 109.545-11.71 173.788-48.81 63.744-36.82 93.929-78.75 126.706-124.28l.62-.86c33.497-46.53 69.619-96.27 145.207-139.93 62.286-35.97 118.785-41.4 172.506-46.56 2.108-.2 4.211-.4 6.311-.61 55.406-5.36 109.545-11.7 173.788-48.81 63.788-36.83 94.438-79.07 127.708-124.9l.36-.51c33.73-46.47 70-96.18 144.5-139.67l.86-.5.02-.01.93-.54.01.01c61.55-35.02 117.49-40.4 170.67-45.5 2.23-.22 4.47-.43 6.69-.65 55.26-5.36 109.3-11.76 173.39-48.77 63.74-36.81 93.93-78.75 126.71-124.28l.62-.86c33.49-46.52 69.62-96.27 145.2-139.925 62.29-35.972 118.78-41.399 172.5-46.559h.01l6.31-.607c55.41-5.37 109.54-11.709 173.79-48.811 63.78-36.838 94.43-79.068 127.7-124.904l.61-.844c33.95-46.77 70.54-96.763 146.1-140.403l21.93 37.983c-67.11 38.761-99.21 82.269-132.54 128.187l-1.37 1.886c-33.36 45.973-68.62 94.562-140.5 136.078-72.8 42.044-134.89 48.999-191.49 54.484l-4.55.44c-54.51 5.264-102.64 9.911-156.57 41.053-67.08 38.745-98.71 81.962-131.55 127.572l-1.33 1.86c-32.92 45.74-67.73 94.09-139.65 135.63-72.63 41.95-134.59 48.97-191.09 54.45m-4.97.48 2.74-.26m-2.74.26c.91-.09 1.83-.18 2.74-.26m2.23-.22-2.23.22m2.23-.22c-.74.07-1.48.14-2.23.22m84.52 118.27 1.17-.11m-1.17.11c-53.18 5.1-109.11 10.48-170.66 45.49h-.01l-.93.54-.08.04-.04.02v.01l-.78.45c-74.49 43.49-110.76 93.19-144.48 139.66l-.37.51c-33.27 45.83-63.92 88.07-127.71 124.9-64.239 37.11-118.378 43.45-173.784 48.81-2.1.21-4.204.41-6.312.61-53.721 5.16-110.22 10.59-172.505 46.56-75.588 43.66-111.711 93.4-145.208 139.93l-.619.86h-.002c-32.776 45.53-62.961 87.46-126.704 124.28-64.243 37.1-118.383 43.44-173.788 48.81-2.1.2-4.205.4-6.314.61-53.72 5.16-110.218 10.58-172.503 46.55-75.562 43.64-112.15 93.64-146.097 140.41l-.613.84c-33.268 45.84-63.919 88.07-127.701 124.9l21.93 37.99c71.886-41.52 107.145-90.11 140.506-136.08l1.367-1.89c33.33-45.91 65.426-89.42 132.539-128.18 53.923-31.15 102.055-35.79 156.569-41.06l4.546-.44c56.6-5.48 118.69-12.43 191.489-54.48 71.921-41.54 106.727-89.89 139.646-135.63h.001l1.337-1.86c32.841-45.62 64.464-88.83 131.55-127.58 53.922-31.14 102.054-35.79 156.568-41.05h.003l4.544-.44c56.6-5.48 118.69-12.44 191.485-54.48 71.89-41.52 107.14-90.1 140.5-136.08l1.14-1.56c33.25-45.81 65.16-89.2 131.7-127.89m149.79-84.08c.39-.04.78-.08 1.17-.11m4.78 43.6c-54.21 5.24-102.09 9.86-155.65 40.54-.03.01-.06.03-.09.05m155.74-40.59 2.11-.2m-2.11.2c.7-.07 1.41-.14 2.11-.2m-157.84 40.78-.01.01m821.52-364.37c-53.73 5.16-110.22 10.58-172.51 46.55-75.59 43.66-111.71 93.41-145.21 139.93l-.62.86c-32.77 45.54-62.96 87.47-126.7 124.28-64.09 37.02-118.13 43.41-173.39 48.77-2.23.22-4.46.43-6.7.65-53.18 5.11-109.11 10.48-170.67 45.5v-.01l-.93.54-.03.02-.06.03-.02.01m796.84-407.13.49-.05m-.49.05c.16-.02.33-.04.49-.05m-797.33 407.18c0 .01-.01.01-.01.01m.01-.01-.01.01m0 0-.77.44h.01c-74.5 43.5-110.77 93.2-144.5 139.67l-.37.51c-33.26 45.83-63.92 88.07-127.7 124.9-64.24 37.11-118.383 43.45-173.789 48.81-2.1.21-4.205.41-6.314.61-53.719 5.16-110.217 10.59-172.502 46.56-75.588 43.66-111.711 93.4-145.208 139.93l-.62.86c-32.777 45.53-62.962 87.46-126.706 124.28-64.243 37.1-118.382 43.44-173.787 48.81-2.1.2-4.205.4-6.314.61-53.72 5.16-110.219 10.58-172.503 46.55-75.562 43.64-112.15 93.64-146.097 140.41l-.613.84c-31.02 42.74-59.763 82.34-115.211 117.36m1534.924-943.17h.01m24.68 42.76.02-.01.06-.03.03-.02.93-.54v.01c61.55-35.02 117.49-40.39 170.67-45.5 2.24-.22 4.47-.43 6.69-.65 55.26-5.36 109.3-11.75 173.39-48.77 63.75-36.81 93.93-78.74 126.71-124.27l.62-.86c33.5-46.53 69.62-96.28 145.21-139.94 62.28-35.97 118.78-41.39 172.5-46.55 2.11-.21 4.21-.41 6.31-.61 55.41-5.37 109.55-11.71 173.79-48.81 63.78-36.84 94.43-79.07 127.7-124.9l.61-.85 35.49 25.77-1.36 1.88c-33.36 45.98-68.62 94.57-140.51 136.08-72.8 42.05-134.89 49-191.49 54.49l-4.54.44c-54.52 5.26-102.65 9.91-156.57 41.05-67.09 38.74-98.71 81.96-131.55 127.57l-1.34 1.86c-32.92 45.74-67.72 94.1-139.65 135.64-72.62 41.94-134.59 48.96-191.08 54.44-1.67.16-3.32.32-4.97.48h-.01c-54.21 5.24-102.09 9.86-155.65 40.54-66.6 38.71-98.53 82.11-131.79 127.95l-1.13 1.56c-33.37 45.97-68.62 94.55-140.51 136.07-72.79 42.04-134.88 49-191.484 54.48l-4.544.44c-54.515 5.26-102.647 9.91-156.571 41.05-67.086 38.75-98.709 81.96-131.549 127.58l-1.338 1.86h-.001c-32.919 45.74-67.724 94.09-139.646 135.63-72.799 42.05-134.889 49-191.489 54.49l-4.546.43h-.004c-54.512 5.27-102.643 9.92-156.565 41.06-67.112 38.76-99.209 82.27-132.538 128.18l-1.369 1.89-34.733-26.81.613-.84c33.947-46.77 70.535-96.77 146.097-140.41 62.284-35.97 118.783-41.39 172.503-46.55 2.108-.21 4.213-.41 6.313-.61 55.406-5.37 109.545-11.71 173.787-48.81 63.744-36.82 93.929-78.75 126.706-124.28l.62-.86c33.498-46.53 69.62-96.27 145.209-139.93 62.285-35.97 118.783-41.4 172.504-46.56 2.108-.2 4.213-.4 6.312-.61 55.403-5.36 109.543-11.7 173.783-48.81 63.79-36.83 94.44-79.07 127.71-124.9l.37-.51c33.72-46.47 69.99-96.17 144.49-139.67l.76-.44m.02-.01c-.01.01-.01.01-.02.01m.02-.01-.02.01m849.77-327c55.4-5.37 109.54-11.71 173.79-48.81 63.78-36.84 94.43-79.07 127.7-124.9l.61-.85-106.38 163.73c-72.8 42.05-134.89 49-191.49 54.49l-4.55.44c-54.51 5.26-102.64 9.91-156.57 41.05-67.08 38.74-98.71 81.96-131.55 127.57l-1.33 1.86c-32.92 45.74-67.73 94.1-139.65 135.64-72.63 41.94-134.59 48.96-191.09 54.44l-4.97.48c-54.22 5.24-102.09 9.86-155.66 40.54-66.59 38.71-98.52 82.11-131.79 127.95l-1.13 1.55c-33.36 45.98-68.62 94.56-140.5 136.08-72.8 42.04-134.89 49-191.49 54.48l-4.54.44c-54.517 5.26-102.649 9.91-156.573 41.05-67.086 38.75-98.709 81.96-131.55 127.58l-1.336 1.86c-32.92 45.73-67.726 94.09-139.648 135.63-72.8 42.05-134.889 49-191.488 54.48l-4.547.44c-54.514 5.27-102.646 9.91-156.569 41.06l-21.931-37.99c62.285-35.97 118.783-41.39 172.503-46.55 2.109-.21 4.214-.41 6.314-.61 55.405-5.37 109.544-11.71 173.787-48.81 63.744-36.82 93.929-78.75 126.706-124.28l.62-.86c33.498-46.53 69.62-96.27 145.208-139.93 62.285-35.97 118.784-41.4 172.504-46.56l6.31-.6c55.41-5.37 109.55-11.71 173.79-48.82 63.78-36.83 94.44-79.07 127.7-124.9h.01l.36-.51c33.73-46.47 70-96.17 144.49-139.66l.75-.44c.01-.01.02-.01.03-.02l.11-.06.94-.54c61.56-35.01 117.49-40.38 170.67-45.49 2.23-.22 4.46-.43 6.69-.65 55.26-5.36 109.3-11.75 173.39-48.77 63.74-36.81 93.93-78.74 126.7-124.27l.62-.86c33.5-46.53 69.62-96.28 145.21-139.93 62.28-35.98 118.78-41.4 172.5-46.56 1.43-.14 2.84-.28 4.26-.41m2.06-.2-2.06.2m2.06-.2c-.69.07-1.37.13-2.06.2M281.405 2524.05c.071-.04.143-.09.214-.13m1228.911-760.39-.76.44c-74.49 43.49-110.76 93.19-144.48 139.66l-.37.51c-33.26 45.83-63.92 88.07-127.7 124.9-64.25 37.11-118.39 43.45-173.79 48.81-2.1.21-4.21.41-6.31.61-53.72 5.16-110.223 10.59-172.508 46.56-75.588 43.66-111.711 93.4-145.208 139.93l-.619.86c-32.778 45.53-62.963 87.46-126.707 124.28-64.243 37.1-118.382 43.44-173.787 48.81-2.1.2-4.204.4-6.312.61h-.004c-53.719 5.16-110.217 10.58-172.501 46.55l22.145 37.86m1228.911-760.39.01-.01m-.01.01.01-.01m.02-.01.11-.06.94-.54c61.55-35.01 117.48-40.39 170.66-45.49m-171.71 46.09-.02.01m.02-.01c-.01.01-.01.01-.02.01m171.73-46.1 1.11-.11m-1.11.11c.37-.04.74-.07 1.11-.11m-126.23 126.96-.76.44c-74.5 43.5-110.77 93.2-144.5 139.67l-.36.51c-33.27 45.83-63.92 88.07-127.71 124.9-64.24 37.11-118.38 43.45-173.79 48.82l-6.31.6c-53.72 5.16-110.217 10.59-172.502 46.56-75.588 43.66-111.711 93.4-145.208 139.93l-.62.86c-32.777 45.53-62.962 87.46-126.706 124.28-64.243 37.1-118.382 43.44-173.787 48.81-2.1.2-4.204.4-6.313.61l202.03-11.44c71.922-41.54 106.728-89.89 139.647-135.63l1.338-1.86c32.84-45.62 64.463-88.83 131.549-127.58 53.922-31.14 102.052-35.78 156.572-41.05l4.54-.44c56.6-5.48 118.69-12.44 191.49-54.48 71.88-41.52 107.14-90.1 140.5-136.07l1.13-1.56c33.27-45.83 65.2-89.24 131.8-127.95 53.56-30.68 101.44-35.3 155.65-40.54l4.97-.48c56.5-5.48 118.46-12.5 191.09-54.44 71.92-41.54 106.73-89.9 139.65-135.64l1.33-1.85c32.84-45.62 64.47-88.84 131.55-127.58 53.93-31.14 102.06-35.79 156.57-41.05l4.55-.44c56.6-5.49 118.69-12.44 191.49-54.49l-21.93-37.98c-64.25 37.1-118.38 43.44-173.79 48.81l-3.7.36m-799.46 407.39s.01 0 .01-.01m-.01.01.01-.01m0 0 .03-.01.06-.03.03-.02.92-.54.01.01c61.55-35.02 117.48-40.39 170.66-45.5h.01c1.6-.15 3.21-.31 4.81-.46m1.88-.19c55.26-5.36 109.3-11.75 173.39-48.77 63.74-36.81 93.93-78.74 126.71-124.27l.62-.86c33.49-46.53 69.62-96.28 145.2-139.93 62.29-35.98 118.78-41.4 172.5-46.56h.01m-618.43 360.39-1.88.19m1.88-.19c-.63.07-1.26.13-1.88.19M2354 1437.13l2.61-.25m-2.61.25c.87-.09 1.74-.17 2.61-.25m-575.17 485.53 4.97-.48c56.5-5.48 118.46-12.5 191.09-54.44 71.92-41.54 106.72-89.9 139.64-135.64l1.34-1.85c32.84-45.62 64.46-88.84 131.55-127.58 53.92-31.14 102.05-35.79 156.57-41.05l4.55-.44 153.55-83.75m-960.97 447.86-.75.43c-74.49 43.49-110.76 93.2-144.48 139.66l-.37.5c-33.26 45.84-63.92 88.08-127.7 124.91-64.25 37.11-118.38 43.45-173.79 48.82l-6.31.6c-53.72 5.16-110.22 10.59-172.506 46.56-75.588 43.66-111.711 93.4-145.208 139.93l-.621.86-11.734 15.69 33.239 24.5 14.704-15.42c32.841-45.62 64.464-88.83 131.55-127.57 53.926-31.15 102.056-35.79 156.566-41.06l4.55-.44c56.6-5.48 118.69-12.44 191.49-54.48 71.88-41.52 107.13-90.1 140.5-136.07l1.13-1.56c33.26-45.83 65.19-89.24 131.79-127.95 53.56-30.68 101.44-35.3 155.66-40.54m-177.71 2.63c.01-.01.02-.02.04-.03m-.04.03.04-.03m0 0 .04-.02.02-.01.05-.03.94-.55.01.01c61.54-35.01 117.47-40.38 170.65-45.49m0 0c2.24-.22 4.47-.43 6.7-.65 55.26-5.36 109.3-11.75 173.39-48.77 63.74-36.81 93.92-78.74 126.7-124.27l.62-.86c33.5-46.53 69.62-96.28 145.21-139.93 62.28-35.97 118.78-41.4 172.5-46.56m0 0 1.37-.13m-1.37.13c.46-.05.91-.09 1.37-.13m-751.64 488.04-.75.43c-74.48 43.49-110.75 93.2-144.47 139.66l-.37.51c-33.27 45.83-63.92 88.07-127.71 124.91-64.24 37.1-118.38 43.44-173.78 48.81l-6.32.6c-53.72 5.16-110.22 10.59-172.5 46.56-75.588 43.66-111.711 93.4-145.209 139.93l-.62.86 167.759-102.81c53.92-31.14 102.05-35.78 156.57-41.05l4.55-.44c56.59-5.48 118.68-12.44 191.48-54.48 71.88-41.52 107.14-90.1 140.5-136.07l1.14-1.56c33.26-45.84 65.19-89.24 131.79-127.95 53.56-30.68 101.44-35.3 155.66-40.54l4.97-.48c56.49-5.48 118.46-12.5 191.08-54.44 71.92-41.54 106.73-89.9 139.65-135.64l1.34-1.85c32.84-45.62 64.46-88.84 131.55-127.58 53.92-31.14 102.05-35.79 156.56-41.05h.01l4.54-.44-4.23-43.66c-2.1.2-4.2.41-6.31.61-53.72 5.16-110.22 10.58-172.5 46.56-75.59 43.65-111.72 93.4-145.21 139.93l-.62.86c-32.78 45.53-62.97 87.46-126.71 124.27-64.09 37.02-118.13 43.41-173.39 48.77l-5.54.54m-172.91 46.23c.02-.01.03-.02.04-.03m-.04.03.04-.03m0 0 .04-.02.03-.01.05-.03.94-.55v.01c61.55-35.01 117.48-40.38 170.66-45.49m0 0 1.15-.11m-1.15.11c.38-.04.77-.07 1.15-.11m45.46 80.86.06-.01m-.06.01h-.01c-53.18 5.11-109.11 10.48-170.66 45.49l-.94.54-.03.02-.05.03-.03.01c-.01.01-.02.01-.03.02l-.75.43v.01c-74.49 43.49-110.76 93.19-144.49 139.66l-.37.51c-33.26 45.83-63.92 88.07-127.7 124.91-64.24 37.1-118.38 43.44-173.79 48.81l-6.31.6c-53.72 5.16-110.22 10.59-172.5 46.56l21.93 37.99c53.92-31.15 102.05-35.79 156.56-41.06h.01l4.54-.44c56.6-5.48 118.69-12.44 191.49-54.48 71.88-41.52 107.14-90.1 140.5-136.07l1.13-1.56c33.27-45.83 65.2-89.24 131.79-127.95 53.57-30.68 101.44-35.3 155.66-40.54l4.97-.48c56.5-5.48 118.46-12.5 191.09-54.44 71.92-41.54 106.72-89.9 139.64-135.64l1.34-1.85c32.84-45.62 64.46-88.84 131.55-127.58 53.92-31.14 102.05-35.79 156.57-41.05l4.55-.44-4.23-43.66c-1.6.16-3.2.31-4.8.46m-626.63 361.19c.02 0 .04 0 .06-.01m625.06-361.03c-53.73 5.16-110.22 10.58-172.51 46.56-75.59 43.65-111.71 93.4-145.21 139.93l-.62.86c-32.77 45.53-62.96 87.46-126.7 124.27-64.09 37.02-118.13 43.41-173.39 48.77-2.21.22-4.42.43-6.63.64m625.06-361.03 1.51-.15m-1.51.15 1.51-.15m-751.76 488.04-.76.44c-74.5 43.5-110.77 93.2-144.49 139.67l-.37.51c-33.26 45.83-63.92 88.07-127.71 124.91-64.24 37.1-118.38 43.44-173.78 48.81l-6.32.6c-53.72 5.16-110.21 10.59-172.5 46.56l178.5-3.07 4.55-.44c56.6-5.48 118.69-12.44 191.49-54.48 71.88-41.52 107.13-90.1 140.49-136.07l1.14-1.56c33.26-45.83 65.19-89.24 131.79-127.95 53.56-30.68 101.44-35.3 155.66-40.54l4.97-.48c56.49-5.48 118.46-12.5 191.08-54.44 71.93-41.54 106.73-89.9 139.65-135.64l1.34-1.85c32.84-45.62 64.46-88.83 131.55-127.58 53.92-31.14 102.05-35.79 156.57-41.05l4.54-.44-4.23-43.66c-2.1.2-4.2.41-6.31.61-53.72 5.16-110.22 10.58-172.5 46.56-75.59 43.65-111.71 93.4-145.21 139.93l-.62.86c-32.78 45.53-62.96 87.46-126.71 124.27-64.09 37.02-118.12 43.42-173.39 48.78-1.83.17-3.67.35-5.52.53m-172.9 46.21h.02m-.02 0h.02m0 0 .02-.02.06-.03.03-.02.93-.54h.01c61.55-35.01 117.48-40.38 170.66-45.49m0 0 1.17-.11m-1.17.11c.39-.04.78-.07 1.17-.11m-79.7 207.72-.76.44c-74.49 43.49-110.76 93.2-144.48 139.66l-.37.51 34.73 26.82 1.13-1.56c33.26-45.83 65.19-89.24 131.79-127.95 53.56-30.68 101.44-35.3 155.66-40.54l4.97-.48c56.49-5.48 118.46-12.5 191.08-54.44 71.93-41.54 106.73-89.9 139.65-135.64l1.34-1.85c32.84-45.62 64.46-88.83 131.55-127.58l-21.93-37.98c-75.59 43.65-111.71 93.4-145.21 139.93l-.62.86c-32.78 45.53-62.96 87.46-126.71 124.27-64.09 37.02-118.12 43.42-173.38 48.78-2.23.21-4.46.43-6.7.64-53.18 5.11-109.11 10.48-170.65 45.49l-.01-.01-.94.55-.04.02-.04.02-.03.02m-.03.02c.01 0 .02-.01.03-.02m-.03.02.03-.02m46.59 80.76-.77.44v.01l22.8 37.48c53.56-30.68 101.44-35.3 155.65-40.54l4.97-.48c56.5-5.48 118.46-12.5 191.09-54.44 71.92-41.54 106.73-89.9 139.65-135.64l1.33-1.85c32.84-45.62 64.47-88.83 131.55-127.58l-21.93-37.98c-75.58 43.65-111.71 93.4-145.21 139.93l-.61.86c-32.78 45.53-62.97 87.46-126.71 124.27-64.09 37.02-118.13 43.42-173.39 48.78-2.23.21-4.46.43-6.69.64h-.01c-53.17 5.11-109.1 10.48-170.65 45.49h-.01l-.93.54-.12.07m-.01 0h.01m-.01 0h.01m218.33 34.65c-53.19 5.11-109.13 10.48-170.69 45.5l-.92.53-.01.01-.09.05-.01.01-.76.43v.01l22.77 37.49c53.56-30.68 101.44-35.3 155.66-40.54l4.97-.48c56.5-5.48 118.46-12.5 191.09-54.44 71.92-41.54 106.72-89.9 139.64-135.64l1.34-1.85c32.84-45.62 64.46-88.83 131.55-127.58l-21.93-37.98c-75.59 43.65-111.71 93.4-145.21 139.93l-.62.86c-32.78 45.53-62.96 87.46-126.7 124.27-64.09 37.02-118.13 43.42-173.39 48.78-2.21.21-4.42.42-6.63.64m-.06 0h.06m-.06 0h.06m-1820.171 79.75c53.837-31.03 101.914-35.67 156.356-40.93l4.545-.43c56.599-5.49 118.689-12.44 191.489-54.49 71.922-41.54 106.727-89.89 139.647-135.63l1.337-1.86c32.84-45.62 64.464-88.83 131.55-127.58 53.923-31.14 102.057-35.79 156.567-41.05l4.55-.44c56.6-5.48 118.69-12.44 191.49-54.48 71.88-41.52 107.13-90.1 140.5-136.07l1.13-1.56c33.26-45.84 65.19-89.24 131.79-127.95 53.56-30.68 101.44-35.3 155.65-40.54h.01l4.97-.48c56.5-5.48 118.46-12.5 191.08-54.44 71.93-41.54 106.73-89.9 139.65-135.64l1.34-1.86c32.84-45.61 64.46-88.83 131.55-127.57 53.92-31.14 102.05-35.79 156.57-41.05l4.54-.44c56.6-5.49 118.69-12.44 191.49-54.49l-21.93-37.98c-64.24 37.1-118.38 43.44-173.79 48.81-2.1.2-4.2.4-6.31.61-53.72 5.16-110.22 10.58-172.5 46.56-75.59 43.65-111.71 93.4-145.21 139.93l-.62.86c-32.78 45.53-62.96 87.46-126.71 124.27-64.09 37.02-118.12 43.41-173.39 48.77l-5.58.54m-26.11-1491.662 3.95-.381c55.41-5.369 109.55-11.708 173.79-48.811 63.78-36.837 94.43-79.067 127.7-124.902l.62-.845c33.94-46.77 70.53-96.763 146.09-140.403 62.29-35.972 118.79-41.398 172.51-46.558 2.1-.202 4.21-.404 6.31-.608 55.4-5.369 109.54-11.708 173.79-48.811 63.74-36.815 93.93-78.745 126.7-124.277l.62-.859-105.39 163.12c-72.8 42.045-134.89 49-191.49 54.484l-3.95.382m44.25 36.912c-1.41.136-2.82.272-4.24.407-53.72 5.16-110.22 10.587-172.5 46.558-75.56 43.64-112.15 93.633-146.1 140.403l-.61.845c-33.27 45.835-63.92 88.065-127.7 124.902-64.25 37.103-118.38 43.442-173.79 48.811l-6.31.608h-.01c-53.72 5.16-110.21 10.587-172.5 46.558-75.58 43.655-111.71 93.401-145.2 139.93l-.62.86v.001c-32.78 45.531-62.97 87.461-126.71 124.276-64.09 37.014-118.13 43.412-173.39 48.772l-5.94.572M-318.394 1470.88a304.1 304.1 0 0 0-6.076 3.41l6.076-3.41Zm191.696-.43c1.91-.19 3.817-.37 5.72-.55 55.405-5.37 109.544-11.71 173.787-48.81 63.744-36.82 93.929-78.75 126.706-124.28l.62-.86c33.498-46.53 69.62-96.28 145.208-139.93 62.283-35.97 118.78-41.4 172.499-46.56h.004c2.109-.2 4.214-.4 6.314-.61 55.405-5.37 109.545-11.7 173.787-48.81 63.785-36.84 94.44-79.072 127.704-124.905l.369-.508c33.725-46.466 69.995-96.171 144.489-139.662l-.002-.004.774-.446.007-.004.028-.015.049-.029.97-.562.003.006c61.552-35.017 117.482-40.388 170.662-45.495 2.24-.214 4.47-.428 6.7-.644 55.26-5.36 109.3-11.758 173.39-48.772 63.74-36.815 93.92-78.745 126.7-124.276l.62-.86c33.5-46.53 69.62-96.276 145.21-139.931 62.28-35.972 118.78-41.398 172.5-46.558 2.11-.202 4.22-.404 6.32-.607 55.4-5.369 109.54-11.708 173.78-48.81 63.79-36.838 94.44-79.068 127.7-124.905l.62-.844c33.94-46.77 70.53-96.763 146.09-140.403 62.29-35.971 118.79-41.398 172.5-46.557h.01c2.11-.203 4.21-.405 6.31-.609 55.41-5.369 109.55-11.707 173.79-48.81l21.93 37.983c-72.8 42.045-134.89 49-191.49 54.484l-4.54.44c-54.52 5.263-102.65 9.91-156.58 41.053-67.11 38.76-99.2 82.268-132.53 128.187l-1.37 1.886c-33.36 45.972-68.62 94.561-140.51 136.077-72.8 42.045-134.89 49-191.48 54.484l-4.55.44c-54.52 5.263-102.65 9.91-156.57 41.053-67.09 38.744-98.71 81.959-131.55 127.576l-1.34 1.856c-32.92 45.737-67.72 94.095-139.64 135.634-72.63 41.945-134.59 48.966-191.09 54.446l-4.21.406m43.06 37.027 3.52-.34c55.26-5.36 109.3-11.758 173.39-48.772 63.74-36.815 93.93-78.745 126.71-124.275v-.003l.62-.858c33.49-46.53 69.62-96.275 145.2-139.93 62.29-35.972 118.79-41.399 172.51-46.559l6.31-.607c55.41-5.369 109.55-11.708 173.79-48.811 63.78-36.837 94.43-79.067 127.7-124.902l.61-.845c33.95-46.77 70.54-96.763 146.1-140.403 62.28-35.972 118.78-41.399 172.5-46.558l6.32-.608 4.23 43.657-4.55.439c-54.51 5.263-102.65 9.91-156.57 41.053-67.11 38.76-99.21 82.269-132.54 128.187l-1.36 1.884c-33.37 45.972-68.63 94.563-140.51 136.079-72.8 42.045-134.89 49-191.49 54.485l-4.54.439h-.01c-54.51 5.263-102.64 9.91-156.57 41.053-67.08 38.745-98.7 81.959-131.54 127.576l-1.34 1.858c-32.92 45.737-67.73 94.094-139.65 135.632-72.62 41.945-134.59 48.965-191.08 54.445l-4.14.4m320.62 521.732 5.52-.54c55.26-5.36 109.3-11.75 173.39-48.77 63.74-36.81 93.93-78.74 126.71-124.28l.62-.86c33.49-46.52 69.62-96.27 145.2-139.93 62.29-35.97 118.79-41.39 172.51-46.55 2.11-.21 4.21-.41 6.31-.61 55.41-5.37 109.55-11.71 173.79-48.812 63.78-36.837 94.43-79.066 127.7-124.902l.61-.845c33.95-46.77 70.54-96.763 146.1-140.403l21.93 37.983c-67.11 38.76-99.21 82.269-132.54 128.187l-1.37 1.884c-33.36 45.973-68.62 94.563-140.5 136.078-72.8 42.05-134.89 49-191.49 54.49l-4.54.43c-54.52 5.27-102.65 9.92-156.57 41.06-67.09 38.74-98.71 81.96-131.55 127.57l-1.34 1.86c-32.92 45.74-67.73 94.1-139.65 135.63-72.62 41.95-134.59 48.97-191.08 54.45-.96.09-1.92.19-2.87.28m-157.85 40.79h-.01.01Zm822.01-364.42c1.94-.19 3.88-.37 5.82-.56 55.4-5.37 109.54-11.71 173.78-48.81 63.79-36.84 94.44-79.069 127.71-124.904l.61-.845 35.49 25.767-1.37 1.884c-33.36 45.968-68.62 94.558-140.51 136.078-72.79 42.05-134.88 49-191.48 54.49l-4.55.44c-54.51 5.26-102.65 9.91-156.57 41.05-67.08 38.74-98.71 81.96-131.55 127.57l-1.33 1.86h-.01c-32.92 45.74-67.72 94.1-139.64 135.63-72.63 41.95-134.59 48.97-191.09 54.45l-4.97.48c-54.22 5.24-102.09 9.86-155.66 40.54-66.59 38.71-98.52 82.11-131.79 127.95l-1.13 1.56c-33.36 45.97-68.62 94.55-140.5 136.07-72.8 42.04-134.89 49-191.489 54.48l-4.547.44c-54.514 5.26-102.645 9.91-156.569 41.05-67.085 38.75-98.709 81.96-131.549 127.58l-1.337 1.86c-32.919 45.73-67.725 94.09-139.647 135.63-72.8 42.05-134.889 49-191.489 54.48l-4.547.44c-54.514 5.27-102.646 9.91-156.569 41.06-67.112 38.76-99.208 82.27-132.538 128.18l-1.368 1.89-149.945 90.55m0 0-12.49 7.54c4.311-2.49 8.471-5 12.49-7.54Zm1671.594 3.59c55.46-35.02 84.21-74.63 115.23-117.37l.36-.51c33.73-46.47 70-96.18 144.51-139.67v-.01l.76-.43.02-.01.08-.05.01-.01.93-.54v.01c61.56-35.02 117.49-40.39 170.68-45.5 2.23-.21 4.46-.43 6.69-.64 55.26-5.37 109.3-11.76 173.39-48.78 63.74-36.81 93.93-78.74 126.7-124.27l.62-.86c33.5-46.53 69.62-96.28 145.21-139.93 62.29-35.97 118.78-41.4 172.5-46.56 2.11-.2 4.22-.41 6.32-.61l4.23 43.66-4.55.44c-54.51 5.26-102.65 9.91-156.57 41.05-67.08 38.75-98.71 81.96-131.55 127.58l-1.33 1.85c-32.92 45.74-67.73 94.1-139.65 135.64-72.63 41.94-134.59 48.96-191.09 54.44l-4.97.48c-54.22 5.24-102.09 9.86-155.66 40.54-66.59 38.71-98.52 82.12-131.79 127.95l-1.13 1.56-149.95 90.55Zm0 0-12.48 7.54c4.31-2.49 8.46-5 12.48-7.54ZM2564.7 1477.18c-57.35 29.44-107.04 35.17-157.78 40.09l-4.95.48m162.73-40.57 16-8.72c-5.4 3.12-10.73 6.02-16 8.72Zm-35.83-840.122c-75.56 43.64-112.15 93.632-146.09 140.402l-.62.846c-33.26 45.835-63.92 88.065-127.7 124.902-64.24 37.103-118.38 43.442-173.78 48.811-2.1.203-4.21.405-6.32.607-53.72 5.16-110.22 10.586-172.5 46.558-75.59 43.656-111.71 93.396-145.21 139.926l-.62.87c-32.78 45.53-62.96 87.46-126.7 124.27-64.09 37.02-118.13 43.41-173.39 48.77-2.23.22-4.46.43-6.69.65-53.19 5.1-109.12 10.48-170.68 45.5v-.01l-.93.54-.03.01-.86.5h.01c-74.5 43.49-110.77 93.2-144.5 139.67l-.37.51c-33.26 45.83-63.92 88.07-127.7 124.9-64.245 37.11-118.384 43.45-173.79 48.81-2.1.21-4.204.41-6.313.61-53.72 5.16-110.219 10.59-172.504 46.56-75.588 43.66-111.711 93.4-145.208 139.93l-.619.86h-.001c-32.777 45.53-62.962 87.46-126.705 124.28-64.243 37.1-118.382 43.44-173.788 48.81-2.1.2-4.205.4-6.313.61h-.004c-53.719 5.16-110.217 10.58-172.5 46.55-75.561 43.64-112.15 93.64-146.096 140.41l-.613.84c-33.268 45.84-63.919 88.07-127.701 124.9l21.93 37.99c71.885-41.52 107.144-90.11 140.505-136.08l1.368-1.89c33.329-45.92 65.425-89.42 132.538-128.18 53.923-31.15 102.055-35.79 156.569-41.06l4.546-.44c56.6-5.48 118.69-12.43 191.489-54.48 71.923-41.54 106.728-89.9 139.648-135.63l1.336-1.86c32.841-45.62 64.464-88.83 131.55-127.58 53.922-31.14 102.055-35.79 156.569-41.05l4.547-.44c56.599-5.48 118.689-12.44 191.49-54.48 71.88-41.52 107.14-90.1 140.5-136.07l1.13-1.56c33.26-45.83 65.19-89.23 131.77-127.94 53.57-30.69 101.45-35.31 155.68-40.55l4.97-.48c56.5-5.48 118.46-12.5 191.09-54.45 71.92-41.53 106.72-89.89 139.64-135.63l1.34-1.86c32.84-45.61 64.46-88.83 131.55-127.57 53.92-31.14 102.05-35.79 156.57-41.055l4.55-.44c56.59-5.484 118.68-12.439 191.48-54.484 71.89-41.517 107.15-90.107 140.51-136.079l1.37-1.884c33.33-45.919 65.42-89.427 132.53-128.187l-21.93-37.983ZM1335.15 1459.47l-.01-.01-.01-.01.02.02ZM2491.33 2376l-1.34 1.85c-32.92 45.74-67.73 94.1-139.65 135.64l-202.01 11.43c2.24-.21 4.47-.43 6.69-.64 55.26-5.36 109.3-11.76 173.39-48.78 63.75-36.81 93.93-78.74 126.71-124.27l.62-.86 35.59 25.63Z"/></g><defs><radialGradient id="b" cx="0" cy="0" r="1" gradientTransform="matrix(-14.96485 -2024.5747 1926.71737 -14.24153 1638.97 2370.77)" gradientUnits="userSpaceOnUse"><stop stop-color="#B997FF"/><stop offset=".595" stop-color="#F9F4F1"/><stop offset="1" stop-color="#FEFCFB" stop-opacity="0"/></radialGradient><radialGradient id="c" cx="0" cy="0" r="1" gradientTransform="matrix(-14.96485 -2024.5747 1926.71737 -14.24153 1638.97 2370.77)" gradientUnits="userSpaceOnUse"><stop stop-color="#B997FF"/><stop offset=".595" stop-color="#F9F4F1"/><stop offset="1" stop-color="#FEFCFB" stop-opacity="0"/></radialGradient><radialGradient id="d" cx="0" cy="0" r="1" gradientTransform="matrix(-14.96485 -2024.5747 1926.71737 -14.24153 1638.97 2370.77)" gradientUnits="userSpaceOnUse"><stop stop-color="#B997FF"/><stop offset=".595" stop-color="#F9F4F1"/><stop offset="1" stop-color="#FEFCFB" stop-opacity="0"/></radialGradient><radialGradient id="e" cx="0" cy="0" r="1" gradientTransform="matrix(-14.96485 -2024.5747 1926.71737 -14.24153 1638.97 2370.77)" gradientUnits="userSpaceOnUse"><stop stop-color="#B997FF"/><stop offset=".595" stop-color="#F9F4F1"/><stop offset="1" stop-color="#FEFCFB" stop-opacity="0"/></radialGradient><radialGradient id="f" cx="0" cy="0" r="1" gradientTransform="matrix(-14.96485 -2024.5747 1926.71737 -14.24153 1638.97 2370.77)" gradientUnits="userSpaceOnUse"><stop stop-color="#B997FF"/><stop offset=".595" stop-color="#F9F4F1"/><stop offset="1" stop-color="#FEFCFB" stop-opacity="0"/></radialGradient><radialGradient id="g" cx="0" cy="0" r="1" gradientTransform="matrix(-14.96485 -2024.5747 1926.71737 -14.24153 1638.97 2370.77)" gradientUnits="userSpaceOnUse"><stop stop-color="#B997FF"/><stop offset=".595" stop-color="#F9F4F1"/><stop offset="1" stop-color="#FEFCFB" stop-opacity="0"/></radialGradient><radialGradient id="h" cx="0" cy="0" r="1" gradientTransform="matrix(-14.96485 -2024.5747 1926.71737 -14.24153 1638.97 2370.77)" gradientUnits="userSpaceOnUse"><stop stop-color="#B997FF"/><stop offset=".595" stop-color="#F9F4F1"/><stop offset="1" stop-color="#FEFCFB" stop-opacity="0"/></radialGradient><radialGradient id="i" cx="0" cy="0" r="1" gradientTransform="matrix(-14.96485 -2024.5747 1926.71737 -14.24153 1638.97 2370.77)" gradientUnits="userSpaceOnUse"><stop stop-color="#B997FF"/><stop offset=".595" stop-color="#F9F4F1"/><stop offset="1" stop-color="#FEFCFB" stop-opacity="0"/></radialGradient><radialGradient id="j" cx="0" cy="0" r="1" gradientTransform="matrix(-14.96485 -2024.5747 1926.71737 -14.24153 1638.97 2370.77)" gradientUnits="userSpaceOnUse"><stop stop-color="#B997FF"/><stop offset=".595" stop-color="#F9F4F1"/><stop offset="1" stop-color="#FEFCFB" stop-opacity="0"/></radialGradient><radialGradient id="k" cx="0" cy="0" r="1" gradientTransform="matrix(-14.96485 -2024.5747 1926.71737 -14.24153 1638.97 2370.77)" gradientUnits="userSpaceOnUse"><stop stop-color="#B997FF"/><stop offset=".595" stop-color="#F9F4F1"/><stop offset="1" stop-color="#FEFCFB" stop-opacity="0"/></radialGradient><radialGradient id="l" cx="0" cy="0" r="1" gradientTransform="matrix(-14.96485 -2024.5747 1926.71737 -14.24153 1638.97 2370.77)" gradientUnits="userSpaceOnUse"><stop stop-color="#B997FF"/><stop offset=".595" stop-color="#F9F4F1"/><stop offset="1" stop-color="#FEFCFB" stop-opacity="0"/></radialGradient><radialGradient id="m" cx="0" cy="0" r="1" gradientTransform="matrix(-14.96485 -2024.5747 1926.71737 -14.24153 1638.97 2370.77)" gradientUnits="userSpaceOnUse"><stop stop-color="#B997FF"/><stop offset=".595" stop-color="#F9F4F1"/><stop offset="1" stop-color="#FEFCFB" stop-opacity="0"/></radialGradient><radialGradient id="n" cx="0" cy="0" r="1" gradientTransform="matrix(-14.96485 -2024.5747 1926.71737 -14.24153 1638.97 2370.77)" gradientUnits="userSpaceOnUse"><stop stop-color="#B997FF"/><stop offset=".595" stop-color="#F9F4F1"/><stop offset="1" stop-color="#FEFCFB" stop-opacity="0"/></radialGradient><radialGradient id="o" cx="0" cy="0" r="1" gradientTransform="matrix(-14.96485 -2024.5747 1926.71737 -14.24153 1638.97 2370.77)" gradientUnits="userSpaceOnUse"><stop stop-color="#B997FF"/><stop offset=".595" stop-color="#F9F4F1"/><stop offset="1" stop-color="#FEFCFB" stop-opacity="0"/></radialGradient><radialGradient id="p" cx="0" cy="0" r="1" gradientTransform="matrix(-14.96485 -2024.5747 1926.71737 -14.24153 1638.97 2370.77)" gradientUnits="userSpaceOnUse"><stop stop-color="#B997FF"/><stop offset=".595" stop-color="#F9F4F1"/><stop offset="1" stop-color="#FEFCFB" stop-opacity="0"/></radialGradient><radialGradient id="q" cx="0" cy="0" r="1" gradientTransform="matrix(-14.96485 -2024.5747 1926.71737 -14.24153 1638.97 2370.77)" gradientUnits="userSpaceOnUse"><stop stop-color="#B997FF"/><stop offset=".595" stop-color="#F9F4F1"/><stop offset="1" stop-color="#FEFCFB" stop-opacity="0"/></radialGradient><radialGradient id="r" cx="0" cy="0" r="1" gradientTransform="matrix(-14.96485 -2024.5747 1926.71737 -14.24153 1638.97 2370.77)" gradientUnits="userSpaceOnUse"><stop stop-color="#B997FF"/><stop offset=".595" stop-color="#F9F4F1"/><stop offset="1" stop-color="#FEFCFB" stop-opacity="0"/></radialGradient><radialGradient id="s" cx="0" cy="0" r="1" gradientTransform="matrix(-14.96485 -2024.5747 1926.71737 -14.24153 1638.97 2370.77)" gradientUnits="userSpaceOnUse"><stop stop-color="#B997FF"/><stop offset=".595" stop-color="#F9F4F1"/><stop offset="1" stop-color="#FEFCFB" stop-opacity="0"/></radialGradient><radialGradient id="t" cx="0" cy="0" r="1" gradientTransform="matrix(-14.96485 -2024.5747 1926.71737 -14.24153 1638.97 2370.77)" gradientUnits="userSpaceOnUse"><stop stop-color="#B997FF"/><stop offset=".595" stop-color="#F9F4F1"/><stop offset="1" stop-color="#FEFCFB" stop-opacity="0"/></radialGradient><radialGradient id="u" cx="0" cy="0" r="1" gradientTransform="matrix(-14.96485 -2024.5747 1926.71737 -14.24153 1638.97 2370.77)" gradientUnits="userSpaceOnUse"><stop stop-color="#B997FF"/><stop offset=".595" stop-color="#F9F4F1"/><stop offset="1" stop-color="#FEFCFB" stop-opacity="0"/></radialGradient><radialGradient id="v" cx="0" cy="0" r="1" gradientTransform="matrix(-14.96485 -2024.5747 1926.71737 -14.24153 1638.97 2370.77)" gradientUnits="userSpaceOnUse"><stop stop-color="#B997FF"/><stop offset=".595" stop-color="#F9F4F1"/><stop offset="1" stop-color="#FEFCFB" stop-opacity="0"/></radialGradient><radialGradient id="w" cx="0" cy="0" r="1" gradientTransform="matrix(-14.96485 -2024.5747 1926.71737 -14.24153 1638.97 2370.77)" gradientUnits="userSpaceOnUse"><stop stop-color="#B997FF"/><stop offset=".595" stop-color="#F9F4F1"/><stop offset="1" stop-color="#FEFCFB" stop-opacity="0"/></radialGradient><radialGradient id="x" cx="0" cy="0" r="1" gradientTransform="matrix(-14.96485 -2024.5747 1926.71737 -14.24153 1638.97 2370.77)" gradientUnits="userSpaceOnUse"><stop stop-color="#B997FF"/><stop offset=".595" stop-color="#F9F4F1"/><stop offset="1" stop-color="#FEFCFB" stop-opacity="0"/></radialGradient><radialGradient id="y" cx="0" cy="0" r="1" gradientTransform="matrix(-14.96485 -2024.5747 1926.71737 -14.24153 1638.97 2370.77)" gradientUnits="userSpaceOnUse"><stop stop-color="#B997FF"/><stop offset=".595" stop-color="#F9F4F1"/><stop offset="1" stop-color="#FEFCFB" stop-opacity="0"/></radialGradient><radialGradient id="z" cx="0" cy="0" r="1" gradientTransform="matrix(-14.96485 -2024.5747 1926.71737 -14.24153 1638.97 2370.77)" gradientUnits="userSpaceOnUse"><stop stop-color="#B997FF"/><stop offset=".595" stop-color="#F9F4F1"/><stop offset="1" stop-color="#FEFCFB" stop-opacity="0"/></radialGradient><radialGradient id="A" cx="0" cy="0" r="1" gradientTransform="matrix(-14.96485 -2024.5747 1926.71737 -14.24153 1638.97 2370.77)" gradientUnits="userSpaceOnUse"><stop stop-color="#B997FF"/><stop offset=".595" stop-color="#F9F4F1"/><stop offset="1" stop-color="#FEFCFB" stop-opacity="0"/></radialGradient><radialGradient id="B" cx="0" cy="0" r="1" gradientTransform="matrix(-14.96485 -2024.5747 1926.71737 -14.24153 1638.97 2370.77)" gradientUnits="userSpaceOnUse"><stop stop-color="#B997FF"/><stop offset=".595" stop-color="#F9F4F1"/><stop offset="1" stop-color="#FEFCFB" stop-opacity="0"/></radialGradient><radialGradient id="C" cx="0" cy="0" r="1" gradientTransform="matrix(-14.96485 -2024.5747 1926.71737 -14.24153 1638.97 2370.77)" gradientUnits="userSpaceOnUse"><stop stop-color="#B997FF"/><stop offset=".595" stop-color="#F9F4F1"/><stop offset="1" stop-color="#FEFCFB" stop-opacity="0"/></radialGradient><radialGradient id="D" cx="0" cy="0" r="1" gradientTransform="scale(2573.11 1577.41) rotate(-90 .894 .242)" gradientUnits="userSpaceOnUse"><stop offset=".33" stop-color="#fff"/><stop offset="1" stop-color="#fff" stop-opacity="0"/></radialGradient><clipPath id="a"><path fill="#fff" d="M.105 0h2160v2160H.105z"/></clipPath></defs></svg>